<svg width="251" height="72" viewBox="0 0 251 72" fill="none" xmlns="http://www.w3.org/2000/svg">
<path d="M50.7156 27.4494C31.3898 31.5376 17.2671 50.5227 12.6214 59.5043C11.6923 50.3679 15.0372 31.2588 35.8496 27.914C56.662 24.5691 68.369 8.24748 71.6209 0.504761C72.8359 6.3772 72.7269 12.0069 71.6209 17.2544C64.6525 23.2684 65.1171 20.9455 70.6628 20.9455C65.4262 37.8846 49.8798 50.1618 36.3141 52.5358C21.4481 55.1374 14.0151 66.3179 12.1569 71.5829C17.36 48.1689 40.0307 32.4048 50.7156 27.4494Z" fill="#CAAE3F"/>
<path d="M0.542786 0.969324H59.0777V7.47321H0.542786V0.969324Z" fill="#CAAE3F"/>
<path d="M6.11754 9.33146H54.4321V13.9771H6.11754V9.33146Z" fill="#CAAE3F"/>
<path d="M12.6214 13.9771H20.0544V44.6383L12.6214 56.7169V13.9771Z" fill="#CAAE3F"/>
<path d="M26.5583 13.9771H33.9913V33.4887H26.5583V13.9771Z" fill="#CAAE3F"/>
<path d="M40.4952 13.9771H46.9991V27.914H40.4952V13.9771Z" fill="#CAAE3F"/>
<path d="M109.158 22.104C110.494 22.104 111.666 22.3651 112.674 22.8873C113.694 23.4094 114.477 24.1562 115.024 25.1277C115.582 26.087 115.862 27.2042 115.862 28.4793C115.862 29.7543 115.582 30.8715 115.024 31.8308C114.477 32.778 113.694 33.5127 112.674 34.0348C111.666 34.557 110.494 34.8181 109.158 34.8181H104.714V22.104H109.158ZM109.067 32.6505C110.403 32.6505 111.435 32.2862 112.164 31.5576C112.893 30.829 113.257 29.8029 113.257 28.4793C113.257 27.1556 112.893 26.1235 112.164 25.3827C111.435 24.6298 110.403 24.2534 109.067 24.2534H107.264V32.6505H109.067ZM124.328 34.8181L121.523 29.8636H120.321V34.8181H117.77V22.104H122.543C123.526 22.104 124.364 22.2801 125.056 22.6323C125.749 22.9723 126.265 23.4398 126.605 24.0348C126.957 24.6177 127.133 25.2734 127.133 26.002C127.133 26.8399 126.89 27.5989 126.404 28.2789C125.919 28.9468 125.196 29.4082 124.237 29.6632L127.279 34.8181H124.328ZM120.321 27.951H122.452C123.144 27.951 123.66 27.7871 124 27.4592C124.34 27.1192 124.51 26.6517 124.51 26.0567C124.51 25.4738 124.34 25.0245 124 24.7088C123.66 24.3809 123.144 24.217 122.452 24.217H120.321V27.951ZM133.829 34.9456C132.943 34.9456 132.141 34.7938 131.425 34.4902C130.72 34.1866 130.162 33.7494 129.749 33.1787C129.336 32.608 129.124 31.934 129.111 31.1569H131.844C131.88 31.679 132.062 32.0919 132.39 32.3955C132.73 32.6991 133.192 32.8508 133.775 32.8508C134.37 32.8508 134.837 32.7112 135.177 32.4319C135.517 32.1405 135.687 31.764 135.687 31.3026C135.687 30.9261 135.572 30.6165 135.341 30.3736C135.11 30.1307 134.819 29.9425 134.467 29.8089C134.127 29.6632 133.653 29.5054 133.046 29.3354C132.22 29.0925 131.546 28.8557 131.024 28.625C130.514 28.3821 130.071 28.0239 129.694 27.5503C129.33 27.0646 129.148 26.421 129.148 25.6195C129.148 24.8666 129.336 24.2109 129.713 23.6523C130.089 23.0937 130.617 22.6687 131.297 22.3773C131.977 22.0737 132.754 21.9219 133.629 21.9219C134.94 21.9219 136.003 22.2437 136.816 22.8873C137.642 23.5187 138.098 24.4052 138.183 25.5467H135.377C135.353 25.1095 135.165 24.7513 134.813 24.472C134.473 24.1805 134.017 24.0348 133.447 24.0348C132.949 24.0348 132.548 24.1623 132.244 24.4173C131.953 24.6723 131.807 25.0427 131.807 25.5284C131.807 25.8684 131.917 26.1538 132.135 26.3845C132.366 26.6031 132.645 26.7853 132.973 26.931C133.313 27.0646 133.787 27.2224 134.394 27.4046C135.22 27.6474 135.894 27.8903 136.416 28.1332C136.938 28.376 137.387 28.7403 137.764 29.2261C138.14 29.7118 138.328 30.3493 138.328 31.1386C138.328 31.8187 138.152 32.4501 137.8 33.033C137.448 33.6159 136.932 34.0834 136.252 34.4355C135.572 34.7756 134.764 34.9456 133.829 34.9456ZM152.675 32.3955H147.612L146.774 34.8181H144.096L148.668 22.0858H151.637L156.209 34.8181H153.513L152.675 32.3955ZM151.983 30.3554L150.143 25.0366L148.304 30.3554H151.983ZM157.262 29.7361C157.262 28.7161 157.463 27.8114 157.863 27.0221C158.276 26.2327 158.835 25.6256 159.539 25.2006C160.243 24.7756 161.027 24.563 161.889 24.563C162.545 24.563 163.17 24.7088 163.765 25.0002C164.36 25.2795 164.834 25.6559 165.186 26.1295V21.339H167.772V34.8181H165.186V33.3244C164.87 33.8223 164.427 34.223 163.856 34.5266C163.285 34.8302 162.624 34.982 161.871 34.982C161.021 34.982 160.243 34.7634 159.539 34.3263C158.835 33.8891 158.276 33.2759 157.863 32.4865C157.463 31.6851 157.262 30.7683 157.262 29.7361ZM165.204 29.7725C165.204 29.1532 165.083 28.625 164.84 28.1878C164.597 27.7385 164.269 27.3985 163.856 27.1678C163.443 26.9249 163 26.8035 162.526 26.8035C162.053 26.8035 161.616 26.9188 161.215 27.1496C160.814 27.3803 160.486 27.7203 160.231 28.1696C159.988 28.6068 159.867 29.1289 159.867 29.7361C159.867 30.3433 159.988 30.8776 160.231 31.339C160.486 31.7883 160.814 32.1344 161.215 32.3773C161.628 32.6201 162.065 32.7416 162.526 32.7416C163 32.7416 163.443 32.6262 163.856 32.3955C164.269 32.1526 164.597 31.8126 164.84 31.3754C165.083 30.9261 165.204 30.3918 165.204 29.7725ZM174.471 32.4683L177.021 24.727H179.735L176.001 34.8181H172.904L169.188 24.727H171.92L174.471 32.4683ZM185.648 34.982C184.676 34.982 183.802 34.7695 183.025 34.3445C182.248 33.9073 181.634 33.2941 181.185 32.5048C180.748 31.7154 180.529 30.8047 180.529 29.7725C180.529 28.7403 180.754 27.8296 181.203 27.0403C181.665 26.251 182.29 25.6438 183.079 25.2188C183.869 24.7816 184.749 24.563 185.721 24.563C186.692 24.563 187.573 24.7816 188.362 25.2188C189.151 25.6438 189.77 26.251 190.22 27.0403C190.681 27.8296 190.912 28.7403 190.912 29.7725C190.912 30.8047 190.675 31.7154 190.202 32.5048C189.74 33.2941 189.109 33.9073 188.307 34.3445C187.518 34.7695 186.631 34.982 185.648 34.982ZM185.648 32.7598C186.109 32.7598 186.54 32.6505 186.941 32.4319C187.354 32.2012 187.682 31.8612 187.925 31.4119C188.168 30.9626 188.289 30.4161 188.289 29.7725C188.289 28.8132 188.034 28.0785 187.524 27.5685C187.026 27.0463 186.413 26.7853 185.684 26.7853C184.956 26.7853 184.342 27.0463 183.845 27.5685C183.359 28.0785 183.116 28.8132 183.116 29.7725C183.116 30.7318 183.353 31.4726 183.826 31.9947C184.312 32.5048 184.919 32.7598 185.648 32.7598ZM196.735 24.563C197.488 24.563 198.15 24.7148 198.721 25.0184C199.291 25.3099 199.741 25.6924 200.068 26.166V24.727H202.637V34.8909C202.637 35.8259 202.449 36.6578 202.072 37.3864C201.696 38.1271 201.131 38.71 200.378 39.135C199.625 39.5722 198.715 39.7907 197.646 39.7907C196.213 39.7907 195.035 39.4568 194.112 38.7889C193.201 38.121 192.685 37.2103 192.564 36.0567H195.096C195.229 36.5181 195.515 36.8824 195.952 37.1496C196.401 37.4289 196.942 37.5685 197.573 37.5685C198.314 37.5685 198.915 37.3439 199.376 36.8946C199.838 36.4574 200.068 35.7895 200.068 34.8909V33.3244C199.741 33.798 199.285 34.1927 198.702 34.5084C198.132 34.8241 197.476 34.982 196.735 34.982C195.885 34.982 195.108 34.7634 194.404 34.3263C193.699 33.8891 193.141 33.2759 192.728 32.4865C192.327 31.6851 192.127 30.7683 192.127 29.7361C192.127 28.7161 192.327 27.8114 192.728 27.0221C193.141 26.2327 193.693 25.6256 194.385 25.2006C195.09 24.7756 195.873 24.563 196.735 24.563ZM200.068 29.7725C200.068 29.1532 199.947 28.625 199.704 28.1878C199.461 27.7385 199.133 27.3985 198.721 27.1678C198.308 26.9249 197.864 26.8035 197.391 26.8035C196.917 26.8035 196.48 26.9188 196.079 27.1496C195.679 27.3803 195.351 27.7203 195.096 28.1696C194.853 28.6068 194.732 29.1289 194.732 29.7361C194.732 30.3433 194.853 30.8776 195.096 31.339C195.351 31.7883 195.679 32.1344 196.079 32.3773C196.492 32.6201 196.929 32.7416 197.391 32.7416C197.864 32.7416 198.308 32.6262 198.721 32.3955C199.133 32.1526 199.461 31.8126 199.704 31.3754C199.947 30.9261 200.068 30.3918 200.068 29.7725ZM204.472 29.7361C204.472 28.7161 204.672 27.8114 205.073 27.0221C205.486 26.2327 206.038 25.6256 206.73 25.2006C207.435 24.7756 208.218 24.563 209.08 24.563C209.833 24.563 210.489 24.7148 211.047 25.0184C211.618 25.322 212.073 25.7045 212.413 26.166V24.727H214.982V34.8181H212.413V33.3426C212.086 33.8162 211.63 34.2109 211.047 34.5266C210.477 34.8302 209.815 34.982 209.062 34.982C208.212 34.982 207.435 34.7634 206.73 34.3263C206.038 33.8891 205.486 33.2759 205.073 32.4865C204.672 31.6851 204.472 30.7683 204.472 29.7361ZM212.413 29.7725C212.413 29.1532 212.292 28.625 212.049 28.1878C211.806 27.7385 211.478 27.3985 211.065 27.1678C210.653 26.9249 210.209 26.8035 209.736 26.8035C209.262 26.8035 208.825 26.9188 208.424 27.1496C208.024 27.3803 207.696 27.7203 207.441 28.1696C207.198 28.6068 207.076 29.1289 207.076 29.7361C207.076 30.3433 207.198 30.8776 207.441 31.339C207.696 31.7883 208.024 32.1344 208.424 32.3773C208.837 32.6201 209.274 32.7416 209.736 32.7416C210.209 32.7416 210.653 32.6262 211.065 32.3955C211.478 32.1526 211.806 31.8126 212.049 31.3754C212.292 30.9261 212.413 30.3918 212.413 29.7725ZM216.817 29.7361C216.817 28.7161 217.017 27.8114 217.418 27.0221C217.831 26.2327 218.389 25.6256 219.093 25.2006C219.798 24.7756 220.581 24.563 221.443 24.563C222.099 24.563 222.724 24.7088 223.319 25.0002C223.914 25.2795 224.388 25.6559 224.74 26.1295V21.339H227.327V34.8181H224.74V33.3244C224.424 33.8223 223.981 34.223 223.41 34.5266C222.84 34.8302 222.178 34.982 221.425 34.982C220.575 34.982 219.798 34.7634 219.093 34.3263C218.389 33.8891 217.831 33.2759 217.418 32.4865C217.017 31.6851 216.817 30.7683 216.817 29.7361ZM224.758 29.7725C224.758 29.1532 224.637 28.625 224.394 28.1878C224.151 27.7385 223.823 27.3985 223.41 27.1678C222.997 26.9249 222.554 26.8035 222.081 26.8035C221.607 26.8035 221.17 26.9188 220.769 27.1496C220.368 27.3803 220.041 27.7203 219.786 28.1696C219.543 28.6068 219.421 29.1289 219.421 29.7361C219.421 30.3433 219.543 30.8776 219.786 31.339C220.041 31.7883 220.368 32.1344 220.769 32.3773C221.182 32.6201 221.619 32.7416 222.081 32.7416C222.554 32.7416 222.997 32.6262 223.41 32.3955C223.823 32.1526 224.151 31.8126 224.394 31.3754C224.637 30.9261 224.758 30.3918 224.758 29.7725ZM234.298 34.982C233.327 34.982 232.452 34.7695 231.675 34.3445C230.898 33.9073 230.285 33.2941 229.835 32.5048C229.398 31.7154 229.18 30.8047 229.18 29.7725C229.18 28.7403 229.404 27.8296 229.854 27.0403C230.315 26.251 230.94 25.6438 231.73 25.2188C232.519 24.7816 233.399 24.563 234.371 24.563C235.342 24.563 236.223 24.7816 237.012 25.2188C237.801 25.6438 238.421 26.251 238.87 27.0403C239.331 27.8296 239.562 28.7403 239.562 29.7725C239.562 30.8047 239.325 31.7154 238.852 32.5048C238.39 33.2941 237.759 33.9073 236.957 34.3445C236.168 34.7695 235.282 34.982 234.298 34.982ZM234.298 32.7598C234.759 32.7598 235.191 32.6505 235.591 32.4319C236.004 32.2012 236.332 31.8612 236.575 31.4119C236.818 30.9626 236.939 30.4161 236.939 29.7725C236.939 28.8132 236.684 28.0785 236.174 27.5685C235.676 27.0463 235.063 26.7853 234.334 26.7853C233.606 26.7853 232.993 27.0463 232.495 27.5685C232.009 28.0785 231.766 28.8132 231.766 29.7725C231.766 30.7318 232.003 31.4726 232.477 31.9947C232.962 32.5048 233.569 32.7598 234.298 32.7598ZM245.294 34.982C244.469 34.982 243.728 34.8363 243.072 34.5448C242.416 34.2412 241.894 33.8344 241.506 33.3244C241.129 32.8144 240.923 32.2497 240.886 31.6304H243.455C243.503 32.019 243.691 32.3408 244.019 32.5958C244.359 32.8508 244.778 32.9783 245.276 32.9783C245.762 32.9783 246.138 32.8812 246.405 32.6869C246.685 32.4926 246.824 32.2437 246.824 31.9401C246.824 31.6122 246.654 31.3694 246.314 31.2115C245.986 31.0415 245.458 30.8593 244.73 30.665C243.977 30.4829 243.357 30.2947 242.872 30.1004C242.398 29.9061 241.985 29.6086 241.633 29.2079C241.293 28.8071 241.123 28.2667 241.123 27.5867C241.123 27.0281 241.281 26.5181 241.597 26.0567C241.925 25.5952 242.386 25.2309 242.981 24.9638C243.588 24.6966 244.299 24.563 245.112 24.563C246.314 24.563 247.274 24.8666 247.99 25.4738C248.707 26.0688 249.101 26.8763 249.174 27.8964H246.733C246.697 27.4956 246.527 27.1799 246.223 26.9492C245.932 26.7063 245.537 26.5849 245.039 26.5849C244.578 26.5849 244.22 26.6699 243.965 26.8399C243.722 27.0099 243.6 27.2467 243.6 27.5503C243.6 27.8903 243.77 28.1514 244.11 28.3335C244.45 28.5035 244.979 28.6796 245.695 28.8618C246.424 29.0439 247.025 29.2321 247.498 29.4264C247.972 29.6207 248.379 29.9243 248.719 30.3372C249.071 30.7379 249.253 31.2722 249.265 31.9401C249.265 32.523 249.101 33.0451 248.773 33.5066C248.458 33.968 247.996 34.3323 247.389 34.5995C246.794 34.8545 246.096 34.982 245.294 34.982Z" fill="white"/>
<path d="M108.075 47.3007C108.02 47.3007 107.984 47.2764 107.965 47.2279L107.638 46.1623C107.631 46.1441 107.619 46.135 107.601 46.135H105.042C105.024 46.135 105.012 46.1441 105.005 46.1623L104.678 47.2279C104.659 47.2764 104.623 47.3007 104.568 47.3007H103.831C103.764 47.3007 103.74 47.2673 103.758 47.2005L105.752 40.9984C105.77 40.9498 105.807 40.9255 105.862 40.9255H106.772C106.827 40.9255 106.863 40.9498 106.882 40.9984L108.894 47.2005L108.903 47.237C108.903 47.2795 108.876 47.3007 108.821 47.3007H108.075ZM105.233 45.3973C105.227 45.4094 105.227 45.4215 105.233 45.4337C105.245 45.4398 105.257 45.4428 105.27 45.4428H107.364C107.376 45.4428 107.386 45.4398 107.392 45.4337C107.404 45.4215 107.407 45.4094 107.401 45.3973L106.344 42.0184C106.338 42.0062 106.329 42.0002 106.317 42.0002C106.305 42.0002 106.296 42.0062 106.29 42.0184L105.233 45.3973ZM112.585 41.0166C112.585 40.9559 112.615 40.9255 112.676 40.9255H113.368C113.429 40.9255 113.459 40.9559 113.459 41.0166V47.2096C113.459 47.2704 113.429 47.3007 113.368 47.3007H112.676C112.615 47.3007 112.585 47.2704 112.585 47.2096V46.9091C112.585 46.897 112.579 46.8878 112.567 46.8818C112.56 46.8757 112.551 46.8787 112.539 46.8909C112.406 47.0427 112.248 47.1611 112.066 47.2461C111.884 47.3311 111.686 47.3736 111.474 47.3736C111.037 47.3736 110.672 47.2673 110.381 47.0548C110.095 46.8362 109.886 46.5296 109.752 46.135C109.637 45.8132 109.579 45.4246 109.579 44.9692C109.579 44.5442 109.628 44.1769 109.725 43.8672C109.853 43.4665 110.062 43.1538 110.353 42.9291C110.645 42.7045 111.018 42.5922 111.474 42.5922C111.68 42.5922 111.874 42.6347 112.057 42.7197C112.245 42.7986 112.406 42.914 112.539 43.0657C112.551 43.0779 112.56 43.0809 112.567 43.0749C112.579 43.0688 112.585 43.0597 112.585 43.0475V41.0166ZM112.357 46.1259C112.497 45.8708 112.567 45.4883 112.567 44.9783C112.567 44.4683 112.491 44.0797 112.339 43.8126C112.163 43.5029 111.905 43.3481 111.565 43.3481C111.2 43.3481 110.93 43.4938 110.754 43.7852C110.56 44.0888 110.463 44.4895 110.463 44.9874C110.463 45.4549 110.539 45.8314 110.69 46.1167C110.867 46.4507 111.155 46.6177 111.556 46.6177C111.908 46.6177 112.175 46.4537 112.357 46.1259ZM115.961 47.3007C115.907 47.3007 115.87 47.2764 115.852 47.2279L114.367 42.7652L114.358 42.7288C114.358 42.6863 114.386 42.665 114.44 42.665H115.205C115.26 42.665 115.296 42.6893 115.315 42.7379L116.316 46.0348C116.322 46.0469 116.332 46.053 116.344 46.053C116.356 46.053 116.365 46.0469 116.371 46.0348L117.364 42.7379C117.382 42.6893 117.418 42.665 117.473 42.665L118.238 42.6741C118.305 42.6741 118.329 42.7075 118.311 42.7743L116.836 47.2279C116.817 47.2764 116.781 47.3007 116.726 47.3007H115.961ZM120.904 47.3736C120.455 47.3736 120.063 47.2613 119.729 47.0366C119.396 46.8059 119.162 46.4871 119.028 46.0803C118.919 45.7525 118.864 45.3821 118.864 44.9692C118.864 44.5381 118.916 44.1738 119.019 43.8763C119.153 43.4756 119.386 43.1629 119.72 42.9382C120.054 42.7075 120.452 42.5922 120.913 42.5922C121.351 42.5922 121.73 42.7075 122.052 42.9382C122.38 43.1629 122.613 43.4725 122.753 43.8672C122.862 44.1769 122.917 44.5412 122.917 44.9601C122.917 45.3851 122.862 45.7585 122.753 46.0803C122.62 46.4871 122.389 46.8059 122.061 47.0366C121.733 47.2613 121.348 47.3736 120.904 47.3736ZM120.904 46.6177C121.147 46.6177 121.36 46.5509 121.542 46.4173C121.724 46.2776 121.855 46.0834 121.933 45.8344C122 45.6037 122.034 45.3183 122.034 44.9783C122.034 44.6383 122.003 44.356 121.943 44.1313C121.864 43.8824 121.733 43.6911 121.551 43.5576C121.369 43.4179 121.147 43.3481 120.886 43.3481C120.637 43.3481 120.422 43.4179 120.239 43.5576C120.057 43.6911 119.927 43.8824 119.848 44.1313C119.781 44.3438 119.748 44.6262 119.748 44.9783C119.748 45.3305 119.781 45.6158 119.848 45.8344C119.921 46.0834 120.048 46.2776 120.23 46.4173C120.419 46.5509 120.643 46.6177 120.904 46.6177ZM126.912 42.7561C126.912 42.6954 126.943 42.665 127.003 42.665H127.696C127.756 42.665 127.787 42.6954 127.787 42.7561V47.0639C127.787 47.7986 127.577 48.3238 127.158 48.6395C126.745 48.9552 126.19 49.1131 125.492 49.1131C125.394 49.1131 125.243 49.107 125.036 49.0949C124.976 49.0888 124.945 49.0554 124.945 48.9947L124.973 48.3663C124.973 48.342 124.982 48.3208 125 48.3025C125.018 48.2843 125.042 48.2783 125.073 48.2843C125.158 48.2904 125.282 48.2934 125.446 48.2934C125.962 48.2934 126.336 48.1963 126.566 48.002C126.797 47.8138 126.912 47.492 126.912 47.0366V46.8727C126.912 46.8605 126.906 46.8514 126.894 46.8453C126.888 46.8393 126.879 46.8423 126.867 46.8545C126.612 47.152 126.238 47.3007 125.747 47.3007C125.352 47.3007 124.994 47.1975 124.672 46.9911C124.356 46.7846 124.138 46.481 124.016 46.0803C123.937 45.8132 123.898 45.4428 123.898 44.9692C123.898 44.4653 123.943 44.0767 124.034 43.8035C124.15 43.4392 124.353 43.1477 124.645 42.9291C124.942 42.7045 125.291 42.5922 125.692 42.5922C126.19 42.5922 126.581 42.744 126.867 43.0475C126.879 43.0597 126.888 43.0657 126.894 43.0657C126.906 43.0597 126.912 43.0506 126.912 43.0384V42.7561ZM126.858 45.8162C126.876 45.7191 126.888 45.6158 126.894 45.5065C126.906 45.3973 126.912 45.2151 126.912 44.9601C126.912 44.7051 126.906 44.526 126.894 44.4228C126.888 44.3135 126.873 44.2103 126.849 44.1131C126.8 43.8885 126.691 43.7063 126.521 43.5667C126.351 43.4209 126.138 43.3481 125.883 43.3481C125.628 43.3481 125.416 43.4209 125.246 43.5667C125.076 43.7063 124.954 43.8885 124.881 44.1131C124.815 44.2953 124.781 44.5776 124.781 44.9601C124.781 45.379 124.812 45.6644 124.872 45.8162C124.933 46.0409 125.051 46.226 125.228 46.3718C125.41 46.5114 125.628 46.5812 125.883 46.5812C126.15 46.5812 126.366 46.5114 126.53 46.3718C126.7 46.226 126.809 46.0409 126.858 45.8162ZM130.701 42.5922C131.071 42.5922 131.393 42.6589 131.666 42.7925C131.945 42.92 132.158 43.1022 132.304 43.339C132.456 43.5697 132.531 43.8338 132.531 44.1313V47.2096C132.531 47.2704 132.501 47.3007 132.44 47.3007H131.748C131.687 47.3007 131.657 47.2704 131.657 47.2096V46.8818C131.657 46.8514 131.642 46.8453 131.612 46.8636C131.454 47.0275 131.259 47.155 131.029 47.2461C130.804 47.3311 130.552 47.3736 130.273 47.3736C129.823 47.3736 129.45 47.2613 129.153 47.0366C128.861 46.8059 128.715 46.4598 128.715 45.9984C128.715 45.5248 128.879 45.1544 129.207 44.8872C129.541 44.614 130.006 44.4774 130.601 44.4774H131.621C131.645 44.4774 131.657 44.4653 131.657 44.441V44.1951C131.657 43.9279 131.578 43.7215 131.42 43.5758C131.269 43.424 131.035 43.3481 130.719 43.3481C130.464 43.3481 130.255 43.3997 130.091 43.5029C129.933 43.6001 129.836 43.7336 129.799 43.9036C129.781 43.9644 129.745 43.9917 129.69 43.9856L128.952 43.8854C128.891 43.8733 128.864 43.849 128.87 43.8126C128.919 43.4543 129.11 43.1629 129.444 42.9382C129.778 42.7075 130.197 42.5922 130.701 42.5922ZM130.464 46.6359C130.786 46.6359 131.065 46.5509 131.302 46.3809C131.539 46.2109 131.657 45.9953 131.657 45.7342V45.1969C131.657 45.1726 131.645 45.1605 131.621 45.1605H130.765C130.406 45.1605 130.121 45.2303 129.908 45.3699C129.696 45.5096 129.59 45.7039 129.59 45.9528C129.59 46.1775 129.669 46.3475 129.826 46.4628C129.99 46.5782 130.203 46.6359 130.464 46.6359ZM136.59 41.0166C136.59 40.9559 136.62 40.9255 136.681 40.9255H137.373C137.434 40.9255 137.464 40.9559 137.464 41.0166V47.2096C137.464 47.2704 137.434 47.3007 137.373 47.3007H136.681C136.62 47.3007 136.59 47.2704 136.59 47.2096V46.9091C136.59 46.897 136.584 46.8878 136.572 46.8818C136.565 46.8757 136.556 46.8787 136.544 46.8909C136.411 47.0427 136.253 47.1611 136.071 47.2461C135.888 47.3311 135.691 47.3736 135.479 47.3736C135.041 47.3736 134.677 47.2673 134.386 47.0548C134.1 46.8362 133.891 46.5296 133.757 46.135C133.642 45.8132 133.584 45.4246 133.584 44.9692C133.584 44.5442 133.633 44.1769 133.73 43.8672C133.857 43.4665 134.067 43.1538 134.358 42.9291C134.65 42.7045 135.023 42.5922 135.479 42.5922C135.685 42.5922 135.879 42.6347 136.061 42.7197C136.25 42.7986 136.411 42.914 136.544 43.0657C136.556 43.0779 136.565 43.0809 136.572 43.0749C136.584 43.0688 136.59 43.0597 136.59 43.0475V41.0166ZM136.362 46.1259C136.502 45.8708 136.572 45.4883 136.572 44.9783C136.572 44.4683 136.496 44.0797 136.344 43.8126C136.168 43.5029 135.91 43.3481 135.57 43.3481C135.205 43.3481 134.935 43.4938 134.759 43.7852C134.565 44.0888 134.468 44.4895 134.468 44.9874C134.468 45.4549 134.544 45.8314 134.695 46.1167C134.871 46.4507 135.16 46.6177 135.561 46.6177C135.913 46.6177 136.18 46.4537 136.362 46.1259ZM140.64 47.3736C140.191 47.3736 139.799 47.2613 139.465 47.0366C139.131 46.8059 138.898 46.4871 138.764 46.0803C138.655 45.7525 138.6 45.3821 138.6 44.9692C138.6 44.5381 138.652 44.1738 138.755 43.8763C138.888 43.4756 139.122 43.1629 139.456 42.9382C139.79 42.7075 140.188 42.5922 140.649 42.5922C141.086 42.5922 141.466 42.7075 141.788 42.9382C142.116 43.1629 142.349 43.4725 142.489 43.8672C142.598 44.1769 142.653 44.5412 142.653 44.9601C142.653 45.3851 142.598 45.7585 142.489 46.0803C142.355 46.4871 142.125 46.8059 141.797 47.0366C141.469 47.2613 141.083 47.3736 140.64 47.3736ZM140.64 46.6177C140.883 46.6177 141.095 46.5509 141.278 46.4173C141.46 46.2776 141.59 46.0834 141.669 45.8344C141.736 45.6037 141.769 45.3183 141.769 44.9783C141.769 44.6383 141.739 44.356 141.678 44.1313C141.599 43.8824 141.469 43.6911 141.287 43.5576C141.105 43.4179 140.883 43.3481 140.622 43.3481C140.373 43.3481 140.157 43.4179 139.975 43.5576C139.793 43.6911 139.663 43.8824 139.584 44.1313C139.517 44.3438 139.483 44.6262 139.483 44.9783C139.483 45.3305 139.517 45.6158 139.584 45.8344C139.657 46.0834 139.784 46.2776 139.966 46.4173C140.154 46.5509 140.379 46.6177 140.64 46.6177ZM145.428 47.3554C145.064 47.3554 144.742 47.3007 144.462 47.1914C144.189 47.0821 143.977 46.9334 143.825 46.7452C143.673 46.5509 143.597 46.3384 143.597 46.1076V46.0075C143.597 45.9467 143.628 45.9164 143.688 45.9164H144.344C144.405 45.9164 144.435 45.9467 144.435 46.0075V46.053C144.435 46.223 144.526 46.3718 144.708 46.4993C144.897 46.6268 145.133 46.6905 145.419 46.6905C145.692 46.6905 145.914 46.6328 146.084 46.5175C146.254 46.396 146.339 46.2443 146.339 46.0621C146.339 45.886 146.26 45.7555 146.102 45.6705C145.944 45.5794 145.689 45.4853 145.337 45.3882C144.991 45.291 144.699 45.1939 144.462 45.0967C144.232 44.9935 144.034 44.8508 143.87 44.6687C143.713 44.4804 143.634 44.2406 143.634 43.9492C143.634 43.5424 143.791 43.2206 144.107 42.9838C144.429 42.7409 144.854 42.6195 145.382 42.6195C145.734 42.6195 146.044 42.6772 146.311 42.7925C146.584 42.9018 146.794 43.0566 146.94 43.257C147.085 43.4574 147.158 43.682 147.158 43.931V43.9583C147.158 44.019 147.128 44.0494 147.067 44.0494H146.43C146.369 44.0494 146.339 44.019 146.339 43.9583V43.931C146.339 43.7549 146.251 43.6092 146.074 43.4938C145.904 43.3724 145.671 43.3116 145.373 43.3116C145.106 43.3116 144.887 43.3633 144.717 43.4665C144.553 43.5697 144.472 43.7093 144.472 43.8854C144.472 44.0615 144.55 44.1951 144.708 44.2861C144.872 44.3772 145.133 44.4744 145.492 44.5776C145.844 44.6747 146.135 44.7719 146.366 44.869C146.603 44.9601 146.803 45.0997 146.967 45.288C147.131 45.4701 147.213 45.7099 147.213 46.0075C147.213 46.4203 147.049 46.7482 146.721 46.9911C146.399 47.2339 145.968 47.3554 145.428 47.3554ZM154.039 47.3007C153.984 47.3007 153.948 47.2764 153.93 47.2279L153.602 46.1623C153.596 46.1441 153.584 46.135 153.565 46.135H151.006C150.988 46.135 150.976 46.1441 150.97 46.1623L150.642 47.2279C150.624 47.2764 150.587 47.3007 150.533 47.3007H149.795C149.728 47.3007 149.704 47.2673 149.722 47.2005L151.717 40.9984C151.735 40.9498 151.771 40.9255 151.826 40.9255H152.737C152.791 40.9255 152.828 40.9498 152.846 40.9984L154.859 47.2005L154.868 47.237C154.868 47.2795 154.84 47.3007 154.786 47.3007H154.039ZM151.197 45.3973C151.191 45.4094 151.191 45.4215 151.197 45.4337C151.21 45.4398 151.222 45.4428 151.234 45.4428H153.329C153.341 45.4428 153.35 45.4398 153.356 45.4337C153.368 45.4215 153.371 45.4094 153.365 45.3973L152.308 42.0184C152.302 42.0062 152.293 42.0002 152.281 42.0002C152.269 42.0002 152.26 42.0062 152.254 42.0184L151.197 45.3973ZM157.426 47.3554C157.062 47.3554 156.74 47.3007 156.46 47.1914C156.187 47.0821 155.975 46.9334 155.823 46.7452C155.671 46.5509 155.595 46.3384 155.595 46.1076V46.0075C155.595 45.9467 155.626 45.9164 155.686 45.9164H156.342C156.403 45.9164 156.433 45.9467 156.433 46.0075V46.053C156.433 46.223 156.524 46.3718 156.706 46.4993C156.895 46.6268 157.131 46.6905 157.417 46.6905C157.69 46.6905 157.912 46.6328 158.082 46.5175C158.252 46.396 158.337 46.2443 158.337 46.0621C158.337 45.886 158.258 45.7555 158.1 45.6705C157.942 45.5794 157.687 45.4853 157.335 45.3882C156.989 45.291 156.697 45.1939 156.46 45.0967C156.23 44.9935 156.032 44.8508 155.868 44.6687C155.711 44.4804 155.632 44.2406 155.632 43.9492C155.632 43.5424 155.79 43.2206 156.105 42.9838C156.427 42.7409 156.852 42.6195 157.38 42.6195C157.732 42.6195 158.042 42.6772 158.309 42.7925C158.582 42.9018 158.792 43.0566 158.938 43.257C159.083 43.4574 159.156 43.682 159.156 43.931V43.9583C159.156 44.019 159.126 44.0494 159.065 44.0494H158.428C158.367 44.0494 158.337 44.019 158.337 43.9583V43.931C158.337 43.7549 158.249 43.6092 158.072 43.4938C157.902 43.3724 157.669 43.3116 157.371 43.3116C157.104 43.3116 156.885 43.3633 156.715 43.4665C156.552 43.5697 156.47 43.7093 156.47 43.8854C156.47 44.0615 156.548 44.1951 156.706 44.2861C156.87 44.3772 157.131 44.4744 157.49 44.5776C157.842 44.6747 158.133 44.7719 158.364 44.869C158.601 44.9601 158.801 45.0997 158.965 45.288C159.129 45.4701 159.211 45.7099 159.211 46.0075C159.211 46.4203 159.047 46.7482 158.719 46.9911C158.397 47.2339 157.966 47.3554 157.426 47.3554ZM161.757 47.3554C161.393 47.3554 161.071 47.3007 160.792 47.1914C160.519 47.0821 160.306 46.9334 160.154 46.7452C160.003 46.5509 159.927 46.3384 159.927 46.1076V46.0075C159.927 45.9467 159.957 45.9164 160.018 45.9164H160.673C160.734 45.9164 160.764 45.9467 160.764 46.0075V46.053C160.764 46.223 160.856 46.3718 161.038 46.4993C161.226 46.6268 161.463 46.6905 161.748 46.6905C162.021 46.6905 162.243 46.6328 162.413 46.5175C162.583 46.396 162.668 46.2443 162.668 46.0621C162.668 45.886 162.589 45.7555 162.431 45.6705C162.273 45.5794 162.018 45.4853 161.666 45.3882C161.32 45.291 161.029 45.1939 160.792 45.0967C160.561 44.9935 160.364 44.8508 160.2 44.6687C160.042 44.4804 159.963 44.2406 159.963 43.9492C159.963 43.5424 160.121 43.2206 160.437 42.9838C160.758 42.7409 161.183 42.6195 161.712 42.6195C162.064 42.6195 162.373 42.6772 162.641 42.7925C162.914 42.9018 163.123 43.0566 163.269 43.257C163.415 43.4574 163.488 43.682 163.488 43.931V43.9583C163.488 44.019 163.457 44.0494 163.397 44.0494H162.759C162.698 44.0494 162.668 44.019 162.668 43.9583V43.931C162.668 43.7549 162.58 43.6092 162.404 43.4938C162.234 43.3724 162 43.3116 161.703 43.3116C161.435 43.3116 161.217 43.3633 161.047 43.4665C160.883 43.5697 160.801 43.7093 160.801 43.8854C160.801 44.0615 160.88 44.1951 161.038 44.2861C161.202 44.3772 161.463 44.4744 161.821 44.5776C162.173 44.6747 162.465 44.7719 162.695 44.869C162.932 44.9601 163.132 45.0997 163.296 45.288C163.46 45.4701 163.542 45.7099 163.542 46.0075C163.542 46.4203 163.378 46.7482 163.05 46.9911C162.729 47.2339 162.298 47.3554 161.757 47.3554ZM166.459 47.3736C166.01 47.3736 165.619 47.2613 165.285 47.0366C164.951 46.8059 164.717 46.4871 164.583 46.0803C164.474 45.7525 164.419 45.3821 164.419 44.9692C164.419 44.5381 164.471 44.1738 164.574 43.8763C164.708 43.4756 164.942 43.1629 165.275 42.9382C165.609 42.7075 166.007 42.5922 166.469 42.5922C166.906 42.5922 167.285 42.7075 167.607 42.9382C167.935 43.1629 168.169 43.4725 168.308 43.8672C168.418 44.1769 168.472 44.5412 168.472 44.9601C168.472 45.3851 168.418 45.7585 168.308 46.0803C168.175 46.4871 167.944 46.8059 167.616 47.0366C167.288 47.2613 166.903 47.3736 166.459 47.3736ZM166.459 46.6177C166.702 46.6177 166.915 46.5509 167.097 46.4173C167.279 46.2776 167.41 46.0834 167.489 45.8344C167.555 45.6037 167.589 45.3183 167.589 44.9783C167.589 44.6383 167.558 44.356 167.498 44.1313C167.419 43.8824 167.288 43.6911 167.106 43.5576C166.924 43.4179 166.702 43.3481 166.441 43.3481C166.192 43.3481 165.977 43.4179 165.795 43.5576C165.612 43.6911 165.482 43.8824 165.403 44.1313C165.336 44.3438 165.303 44.6262 165.303 44.9783C165.303 45.3305 165.336 45.6158 165.403 45.8344C165.476 46.0834 165.603 46.2776 165.785 46.4173C165.974 46.5509 166.198 46.6177 166.459 46.6177ZM171.475 47.3736C171.013 47.3736 170.619 47.2582 170.291 47.0275C169.963 46.7907 169.738 46.4719 169.617 46.0712C169.526 45.7919 169.48 45.4246 169.48 44.9692C169.48 44.5503 169.526 44.1829 169.617 43.8672C169.738 43.4786 169.963 43.169 170.291 42.9382C170.625 42.7075 171.019 42.5922 171.475 42.5922C171.93 42.5922 172.328 42.7075 172.668 42.9382C173.008 43.169 173.23 43.4604 173.333 43.8126C173.369 43.9097 173.393 44.0099 173.406 44.1131C173.406 44.1617 173.378 44.192 173.324 44.2042L172.641 44.3044H172.622C172.58 44.3044 172.549 44.277 172.531 44.2224L172.504 44.0767C172.455 43.8702 172.337 43.6972 172.149 43.5576C171.961 43.4179 171.733 43.3481 171.466 43.3481C171.205 43.3481 170.983 43.4179 170.801 43.5576C170.619 43.6972 170.5 43.8824 170.446 44.1131C170.391 44.3317 170.364 44.6201 170.364 44.9783C170.364 45.3305 170.391 45.6158 170.446 45.8344C170.506 46.0773 170.625 46.2685 170.801 46.4082C170.983 46.5478 171.205 46.6177 171.466 46.6177C171.733 46.6177 171.961 46.5478 172.149 46.4082C172.343 46.2685 172.464 46.0864 172.513 45.8617C172.519 45.8557 172.519 45.8496 172.513 45.8435C172.513 45.8314 172.516 45.8223 172.522 45.8162V45.7798C172.54 45.7312 172.574 45.713 172.622 45.7251L173.305 45.8344C173.354 45.8466 173.378 45.8708 173.378 45.9073V45.9437C173.378 45.9984 173.363 46.0651 173.333 46.1441C173.23 46.5144 173.008 46.812 172.668 47.0366C172.328 47.2613 171.93 47.3736 171.475 47.3736ZM174.939 41.9364C174.769 41.9364 174.629 41.8818 174.52 41.7725C174.411 41.6632 174.356 41.5235 174.356 41.3535C174.356 41.1835 174.411 41.0439 174.52 40.9346C174.629 40.8253 174.769 40.7707 174.939 40.7707C175.109 40.7707 175.249 40.8253 175.358 40.9346C175.467 41.0439 175.522 41.1835 175.522 41.3535C175.522 41.5235 175.467 41.6632 175.358 41.7725C175.249 41.8818 175.109 41.9364 174.939 41.9364ZM174.575 47.2916C174.514 47.2916 174.484 47.2613 174.484 47.2005V42.7561C174.484 42.6954 174.514 42.665 174.575 42.665H175.267C175.328 42.665 175.358 42.6954 175.358 42.7561V47.2005C175.358 47.2613 175.328 47.2916 175.267 47.2916H174.575ZM178.426 42.5922C178.796 42.5922 179.118 42.6589 179.391 42.7925C179.671 42.92 179.883 43.1022 180.029 43.339C180.181 43.5697 180.257 43.8338 180.257 44.1313V47.2096C180.257 47.2704 180.226 47.3007 180.166 47.3007H179.473C179.413 47.3007 179.382 47.2704 179.382 47.2096V46.8818C179.382 46.8514 179.367 46.8453 179.337 46.8636C179.179 47.0275 178.985 47.155 178.754 47.2461C178.529 47.3311 178.277 47.3736 177.998 47.3736C177.549 47.3736 177.175 47.2613 176.878 47.0366C176.586 46.8059 176.441 46.4598 176.441 45.9984C176.441 45.5248 176.605 45.1544 176.932 44.8872C177.266 44.614 177.731 44.4774 178.326 44.4774H179.346C179.37 44.4774 179.382 44.4653 179.382 44.441V44.1951C179.382 43.9279 179.303 43.7215 179.146 43.5758C178.994 43.424 178.76 43.3481 178.444 43.3481C178.189 43.3481 177.98 43.3997 177.816 43.5029C177.658 43.6001 177.561 43.7336 177.524 43.9036C177.506 43.9644 177.47 43.9917 177.415 43.9856L176.677 43.8854C176.617 43.8733 176.589 43.849 176.595 43.8126C176.644 43.4543 176.835 43.1629 177.169 42.9382C177.503 42.7075 177.922 42.5922 178.426 42.5922ZM178.189 46.6359C178.511 46.6359 178.79 46.5509 179.027 46.3809C179.264 46.2109 179.382 45.9953 179.382 45.7342V45.1969C179.382 45.1726 179.37 45.1605 179.346 45.1605H178.49C178.132 45.1605 177.846 45.2303 177.634 45.3699C177.421 45.5096 177.315 45.7039 177.315 45.9528C177.315 46.1775 177.394 46.3475 177.552 46.4628C177.716 46.5782 177.928 46.6359 178.189 46.6359ZM184.315 41.0166C184.315 40.9559 184.345 40.9255 184.406 40.9255H185.098C185.159 40.9255 185.189 40.9559 185.189 41.0166V47.2096C185.189 47.2704 185.159 47.3007 185.098 47.3007H184.406C184.345 47.3007 184.315 47.2704 184.315 47.2096V46.9091C184.315 46.897 184.309 46.8878 184.297 46.8818C184.291 46.8757 184.282 46.8787 184.269 46.8909C184.136 47.0427 183.978 47.1611 183.796 47.2461C183.614 47.3311 183.416 47.3736 183.204 47.3736C182.767 47.3736 182.402 47.2673 182.111 47.0548C181.826 46.8362 181.616 46.5296 181.483 46.135C181.367 45.8132 181.31 45.4246 181.31 44.9692C181.31 44.5442 181.358 44.1769 181.455 43.8672C181.583 43.4665 181.792 43.1538 182.084 42.9291C182.375 42.7045 182.748 42.5922 183.204 42.5922C183.41 42.5922 183.605 42.6347 183.787 42.7197C183.975 42.7986 184.136 42.914 184.269 43.0657C184.282 43.0779 184.291 43.0809 184.297 43.0749C184.309 43.0688 184.315 43.0597 184.315 43.0475V41.0166ZM184.087 46.1259C184.227 45.8708 184.297 45.4883 184.297 44.9783C184.297 44.4683 184.221 44.0797 184.069 43.8126C183.893 43.5029 183.635 43.3481 183.295 43.3481C182.931 43.3481 182.66 43.4938 182.484 43.7852C182.29 44.0888 182.193 44.4895 182.193 44.9874C182.193 45.4549 182.269 45.8314 182.421 46.1167C182.597 46.4507 182.885 46.6177 183.286 46.6177C183.638 46.6177 183.905 46.4537 184.087 46.1259ZM188.365 47.3736C187.916 47.3736 187.524 47.2613 187.191 47.0366C186.857 46.8059 186.623 46.4871 186.489 46.0803C186.38 45.7525 186.325 45.3821 186.325 44.9692C186.325 44.5381 186.377 44.1738 186.48 43.8763C186.614 43.4756 186.847 43.1629 187.181 42.9382C187.515 42.7075 187.913 42.5922 188.374 42.5922C188.812 42.5922 189.191 42.7075 189.513 42.9382C189.841 43.1629 190.075 43.4725 190.214 43.8672C190.323 44.1769 190.378 44.5412 190.378 44.9601C190.378 45.3851 190.323 45.7585 190.214 46.0803C190.081 46.4871 189.85 46.8059 189.522 47.0366C189.194 47.2613 188.809 47.3736 188.365 47.3736ZM188.365 46.6177C188.608 46.6177 188.821 46.5509 189.003 46.4173C189.185 46.2776 189.316 46.0834 189.395 45.8344C189.461 45.6037 189.495 45.3183 189.495 44.9783C189.495 44.6383 189.464 44.356 189.404 44.1313C189.325 43.8824 189.194 43.6911 189.012 43.5576C188.83 43.4179 188.608 43.3481 188.347 43.3481C188.098 43.3481 187.883 43.4179 187.701 43.5576C187.518 43.6911 187.388 43.8824 187.309 44.1313C187.242 44.3438 187.209 44.6262 187.209 44.9783C187.209 45.3305 187.242 45.6158 187.309 45.8344C187.382 46.0834 187.509 46.2776 187.691 46.4173C187.88 46.5509 188.104 46.6177 188.365 46.6177ZM193.153 47.3554C192.789 47.3554 192.467 47.3007 192.188 47.1914C191.914 47.0821 191.702 46.9334 191.55 46.7452C191.398 46.5509 191.322 46.3384 191.322 46.1076V46.0075C191.322 45.9467 191.353 45.9164 191.414 45.9164H192.069C192.13 45.9164 192.16 45.9467 192.16 46.0075V46.053C192.16 46.223 192.251 46.3718 192.434 46.4993C192.622 46.6268 192.859 46.6905 193.144 46.6905C193.417 46.6905 193.639 46.6328 193.809 46.5175C193.979 46.396 194.064 46.2443 194.064 46.0621C194.064 45.886 193.985 45.7555 193.827 45.6705C193.669 45.5794 193.414 45.4853 193.062 45.3882C192.716 45.291 192.424 45.1939 192.188 45.0967C191.957 44.9935 191.76 44.8508 191.596 44.6687C191.438 44.4804 191.359 44.2406 191.359 43.9492C191.359 43.5424 191.517 43.2206 191.832 42.9838C192.154 42.7409 192.579 42.6195 193.108 42.6195C193.46 42.6195 193.769 42.6772 194.036 42.7925C194.31 42.9018 194.519 43.0566 194.665 43.257C194.811 43.4574 194.883 43.682 194.883 43.931V43.9583C194.883 44.019 194.853 44.0494 194.792 44.0494H194.155C194.094 44.0494 194.064 44.019 194.064 43.9583V43.931C194.064 43.7549 193.976 43.6092 193.8 43.4938C193.63 43.3724 193.396 43.3116 193.098 43.3116C192.831 43.3116 192.613 43.3633 192.443 43.4665C192.279 43.5697 192.197 43.7093 192.197 43.8854C192.197 44.0615 192.276 44.1951 192.434 44.2861C192.598 44.3772 192.859 44.4744 193.217 44.5776C193.569 44.6747 193.86 44.7719 194.091 44.869C194.328 44.9601 194.528 45.0997 194.692 45.288C194.856 45.4701 194.938 45.7099 194.938 46.0075C194.938 46.4203 194.774 46.7482 194.446 46.9911C194.125 47.2339 193.693 47.3554 193.153 47.3554Z" fill="white"/>
<rect x="87.0637" y="23.2734" width="1.82149" height="25.5009" fill="#CAAE3F"/>
</svg>
