<svg width="503" height="157" viewBox="0 0 503 157" fill="none" xmlns="http://www.w3.org/2000/svg">
<path d="M110.18 59.1705C67.74 68.1481 36.7265 109.839 26.5247 129.563C24.4843 109.499 31.8296 67.536 77.5337 60.1907C123.238 52.8454 148.946 17.003 156.088 0C158.756 12.8959 158.516 25.2587 156.088 36.7822C140.785 49.9889 141.805 44.888 153.984 44.888C142.484 82.0861 108.344 109.047 78.5539 114.26C45.9081 119.973 29.5852 144.526 25.5045 156.088C36.9305 104.671 86.7154 70.0524 110.18 59.1705Z" fill="#CAAE3F"/>
<path d="M0 1.02018H128.543V15.3027H0V1.02018Z" fill="#CAAE3F"/>
<path d="M12.2422 19.3834H118.341V29.5852H12.2422V19.3834Z" fill="#CAAE3F"/>
<path d="M26.5247 29.5852H42.8476V96.9172L26.5247 123.442V29.5852Z" fill="#CAAE3F"/>
<path d="M57.1301 29.5852H73.453V72.4328H57.1301V29.5852Z" fill="#CAAE3F"/>
<path d="M87.7355 29.5852H102.018V60.1907H87.7355V29.5852Z" fill="#CAAE3F"/>
<path d="M194.52 47.08C197.453 47.08 200.027 47.6534 202.24 48.8C204.48 49.9467 206.2 51.5867 207.4 53.72C208.627 55.8267 209.24 58.28 209.24 61.08C209.24 63.88 208.627 66.3334 207.4 68.44C206.2 70.52 204.48 72.1334 202.24 73.28C200.027 74.4267 197.453 75 194.52 75H184.76V47.08H194.52ZM194.32 70.24C197.253 70.24 199.52 69.44 201.12 67.84C202.72 66.24 203.52 63.9867 203.52 61.08C203.52 58.1734 202.72 55.9067 201.12 54.28C199.52 52.6267 197.253 51.8 194.32 51.8H190.36V70.24H194.32Z" fill="#222222"/>
<path d="M227.832 75L221.672 64.12H219.032V75H213.432V47.08H223.912C226.072 47.08 227.912 47.4667 229.432 48.24C230.952 48.9867 232.085 50.0134 232.832 51.32C233.605 52.6 233.992 54.04 233.992 55.64C233.992 57.48 233.459 59.1467 232.392 60.64C231.325 62.1067 229.739 63.12 227.632 63.68L234.312 75H227.832ZM219.032 59.92H223.712C225.232 59.92 226.365 59.56 227.112 58.84C227.859 58.0934 228.232 57.0667 228.232 55.76C228.232 54.48 227.859 53.4934 227.112 52.8C226.365 52.08 225.232 51.72 223.712 51.72H219.032V59.92Z" fill="#222222"/>
<path d="M248.697 75.28C246.75 75.28 244.99 74.9467 243.417 74.28C241.87 73.6134 240.644 72.6534 239.737 71.4C238.83 70.1467 238.364 68.6667 238.337 66.96H244.337C244.417 68.1067 244.817 69.0134 245.537 69.68C246.284 70.3467 247.297 70.68 248.577 70.68C249.884 70.68 250.91 70.3734 251.657 69.76C252.404 69.12 252.777 68.2934 252.777 67.28C252.777 66.4534 252.524 65.7734 252.017 65.24C251.51 64.7067 250.87 64.2934 250.097 64C249.35 63.68 248.31 63.3334 246.977 62.96C245.164 62.4267 243.684 61.9067 242.537 61.4C241.417 60.8667 240.444 60.08 239.617 59.04C238.817 57.9734 238.417 56.56 238.417 54.8C238.417 53.1467 238.83 51.7067 239.657 50.48C240.484 49.2534 241.644 48.32 243.137 47.68C244.63 47.0134 246.337 46.68 248.257 46.68C251.137 46.68 253.47 47.3867 255.257 48.8C257.07 50.1867 258.07 52.1334 258.257 54.64H252.097C252.044 53.68 251.63 52.8934 250.857 52.28C250.11 51.64 249.11 51.32 247.857 51.32C246.764 51.32 245.884 51.6 245.217 52.16C244.577 52.72 244.257 53.5334 244.257 54.6C244.257 55.3467 244.497 55.9734 244.977 56.48C245.484 56.96 246.097 57.36 246.817 57.68C247.564 57.9734 248.604 58.32 249.937 58.72C251.75 59.2534 253.23 59.7867 254.377 60.32C255.524 60.8534 256.51 61.6534 257.337 62.72C258.164 63.7867 258.577 65.1867 258.577 66.92C258.577 68.4134 258.19 69.8 257.417 71.08C256.644 72.36 255.51 73.3867 254.017 74.16C252.524 74.9067 250.75 75.28 248.697 75.28Z" fill="#222222"/>
<path d="M290.083 69.68H278.963L277.123 75H271.243L281.283 47.04H287.803L297.843 75H291.923L290.083 69.68ZM288.563 65.2L284.523 53.52L280.483 65.2H288.563Z" fill="#222222"/>
<path d="M300.156 63.84C300.156 61.6 300.596 59.6134 301.476 57.88C302.383 56.1467 303.609 54.8134 305.156 53.88C306.703 52.9467 308.423 52.48 310.316 52.48C311.756 52.48 313.129 52.8 314.436 53.44C315.743 54.0534 316.783 54.88 317.556 55.92V45.4H323.236V75H317.556V71.72C316.863 72.8134 315.889 73.6934 314.636 74.36C313.383 75.0267 311.929 75.36 310.276 75.36C308.409 75.36 306.703 74.88 305.156 73.92C303.609 72.96 302.383 71.6134 301.476 69.88C300.596 68.12 300.156 66.1067 300.156 63.84ZM317.596 63.92C317.596 62.56 317.329 61.4 316.796 60.44C316.263 59.4534 315.543 58.7067 314.636 58.2C313.729 57.6667 312.756 57.4 311.716 57.4C310.676 57.4 309.716 57.6534 308.836 58.16C307.956 58.6667 307.236 59.4134 306.676 60.4C306.143 61.36 305.876 62.5067 305.876 63.84C305.876 65.1734 306.143 66.3467 306.676 67.36C307.236 68.3467 307.956 69.1067 308.836 69.64C309.743 70.1734 310.703 70.44 311.716 70.44C312.756 70.44 313.729 70.1867 314.636 69.68C315.543 69.1467 316.263 68.4 316.796 67.44C317.329 66.4534 317.596 65.28 317.596 63.92Z" fill="#222222"/>
<path d="M337.945 69.84L343.545 52.84H349.505L341.305 75H334.505L326.345 52.84H332.345L337.945 69.84Z" fill="#222222"/>
<path d="M362.491 75.36C360.357 75.36 358.437 74.8934 356.731 73.96C355.024 73 353.677 71.6534 352.691 69.92C351.731 68.1867 351.251 66.1867 351.251 63.92C351.251 61.6534 351.744 59.6534 352.731 57.92C353.744 56.1867 355.117 54.8534 356.851 53.92C358.584 52.96 360.517 52.48 362.651 52.48C364.784 52.48 366.717 52.96 368.451 53.92C370.184 54.8534 371.544 56.1867 372.531 57.92C373.544 59.6534 374.051 61.6534 374.051 63.92C374.051 66.1867 373.531 68.1867 372.491 69.92C371.477 71.6534 370.091 73 368.331 73.96C366.597 74.8934 364.651 75.36 362.491 75.36ZM362.491 70.48C363.504 70.48 364.451 70.24 365.331 69.76C366.237 69.2534 366.957 68.5067 367.491 67.52C368.024 66.5334 368.291 65.3334 368.291 63.92C368.291 61.8134 367.731 60.2 366.611 59.08C365.517 57.9334 364.171 57.36 362.571 57.36C360.971 57.36 359.624 57.9334 358.531 59.08C357.464 60.2 356.931 61.8134 356.931 63.92C356.931 66.0267 357.451 67.6534 358.491 68.8C359.557 69.92 360.891 70.48 362.491 70.48Z" fill="#222222"/>
<path d="M386.838 52.48C388.492 52.48 389.945 52.8134 391.198 53.48C392.452 54.12 393.438 54.96 394.158 56V52.84H399.798V75.16C399.798 77.2134 399.385 79.04 398.558 80.64C397.732 82.2667 396.492 83.5467 394.838 84.48C393.185 85.44 391.185 85.92 388.838 85.92C385.692 85.92 383.105 85.1867 381.078 83.72C379.078 82.2534 377.945 80.2534 377.678 77.72H383.238C383.532 78.7334 384.158 79.5334 385.118 80.12C386.105 80.7334 387.292 81.04 388.678 81.04C390.305 81.04 391.625 80.5467 392.638 79.56C393.652 78.6 394.158 77.1334 394.158 75.16V71.72C393.438 72.76 392.438 73.6267 391.158 74.32C389.905 75.0134 388.465 75.36 386.838 75.36C384.972 75.36 383.265 74.88 381.718 73.92C380.172 72.96 378.945 71.6134 378.038 69.88C377.158 68.12 376.718 66.1067 376.718 63.84C376.718 61.6 377.158 59.6134 378.038 57.88C378.945 56.1467 380.158 54.8134 381.678 53.88C383.225 52.9467 384.945 52.48 386.838 52.48ZM394.158 63.92C394.158 62.56 393.892 61.4 393.358 60.44C392.825 59.4534 392.105 58.7067 391.198 58.2C390.292 57.6667 389.318 57.4 388.278 57.4C387.238 57.4 386.278 57.6534 385.398 58.16C384.518 58.6667 383.798 59.4134 383.238 60.4C382.705 61.36 382.438 62.5067 382.438 63.84C382.438 65.1734 382.705 66.3467 383.238 67.36C383.798 68.3467 384.518 69.1067 385.398 69.64C386.305 70.1734 387.265 70.44 388.278 70.44C389.318 70.44 390.292 70.1867 391.198 69.68C392.105 69.1467 392.825 68.4 393.358 67.44C393.892 66.4534 394.158 65.28 394.158 63.92Z" fill="#222222"/>
<path d="M403.828 63.84C403.828 61.6 404.268 59.6134 405.148 57.88C406.054 56.1467 407.268 54.8134 408.788 53.88C410.334 52.9467 412.054 52.48 413.948 52.48C415.601 52.48 417.041 52.8134 418.268 53.48C419.521 54.1467 420.521 54.9867 421.268 56V52.84H426.908V75H421.268V71.76C420.548 72.8 419.548 73.6667 418.268 74.36C417.014 75.0267 415.561 75.36 413.908 75.36C412.041 75.36 410.334 74.88 408.788 73.92C407.268 72.96 406.054 71.6134 405.148 69.88C404.268 68.12 403.828 66.1067 403.828 63.84ZM421.268 63.92C421.268 62.56 421.001 61.4 420.468 60.44C419.935 59.4534 419.214 58.7067 418.308 58.2C417.401 57.6667 416.428 57.4 415.388 57.4C414.348 57.4 413.388 57.6534 412.508 58.16C411.628 58.6667 410.908 59.4134 410.348 60.4C409.814 61.36 409.548 62.5067 409.548 63.84C409.548 65.1734 409.814 66.3467 410.348 67.36C410.908 68.3467 411.628 69.1067 412.508 69.64C413.414 70.1734 414.374 70.44 415.388 70.44C416.428 70.44 417.401 70.1867 418.308 69.68C419.214 69.1467 419.935 68.4 420.468 67.44C421.001 66.4534 421.268 65.28 421.268 63.92Z" fill="#222222"/>
<path d="M430.937 63.84C430.937 61.6 431.377 59.6134 432.257 57.88C433.164 56.1467 434.391 54.8134 435.937 53.88C437.484 52.9467 439.204 52.48 441.097 52.48C442.537 52.48 443.911 52.8 445.217 53.44C446.524 54.0534 447.564 54.88 448.337 55.92V45.4H454.017V75H448.337V71.72C447.644 72.8134 446.671 73.6934 445.417 74.36C444.164 75.0267 442.711 75.36 441.057 75.36C439.191 75.36 437.484 74.88 435.937 73.92C434.391 72.96 433.164 71.6134 432.257 69.88C431.377 68.12 430.937 66.1067 430.937 63.84ZM448.377 63.92C448.377 62.56 448.111 61.4 447.577 60.44C447.044 59.4534 446.324 58.7067 445.417 58.2C444.511 57.6667 443.537 57.4 442.497 57.4C441.457 57.4 440.497 57.6534 439.617 58.16C438.737 58.6667 438.017 59.4134 437.457 60.4C436.924 61.36 436.657 62.5067 436.657 63.84C436.657 65.1734 436.924 66.3467 437.457 67.36C438.017 68.3467 438.737 69.1067 439.617 69.64C440.524 70.1734 441.484 70.44 442.497 70.44C443.537 70.44 444.511 70.1867 445.417 69.68C446.324 69.1467 447.044 68.4 447.577 67.44C448.111 66.4534 448.377 65.28 448.377 63.92Z" fill="#222222"/>
<path d="M469.327 75.36C467.193 75.36 465.273 74.8934 463.567 73.96C461.86 73 460.513 71.6534 459.527 69.92C458.567 68.1867 458.087 66.1867 458.087 63.92C458.087 61.6534 458.58 59.6534 459.567 57.92C460.58 56.1867 461.953 54.8534 463.687 53.92C465.42 52.96 467.353 52.48 469.487 52.48C471.62 52.48 473.553 52.96 475.287 53.92C477.02 54.8534 478.38 56.1867 479.367 57.92C480.38 59.6534 480.887 61.6534 480.887 63.92C480.887 66.1867 480.367 68.1867 479.327 69.92C478.313 71.6534 476.927 73 475.167 73.96C473.433 74.8934 471.487 75.36 469.327 75.36ZM469.327 70.48C470.34 70.48 471.287 70.24 472.167 69.76C473.073 69.2534 473.793 68.5067 474.327 67.52C474.86 66.5334 475.127 65.3334 475.127 63.92C475.127 61.8134 474.567 60.2 473.447 59.08C472.353 57.9334 471.007 57.36 469.407 57.36C467.807 57.36 466.46 57.9334 465.367 59.08C464.3 60.2 463.767 61.8134 463.767 63.92C463.767 66.0267 464.287 67.6534 465.327 68.8C466.393 69.92 467.727 70.48 469.327 70.48Z" fill="#222222"/>
<path d="M493.474 75.36C491.661 75.36 490.034 75.04 488.594 74.4C487.154 73.7334 486.008 72.84 485.154 71.72C484.328 70.6 483.874 69.36 483.794 68H489.434C489.541 68.8534 489.954 69.56 490.674 70.12C491.421 70.68 492.341 70.96 493.434 70.96C494.501 70.96 495.328 70.7467 495.914 70.32C496.528 69.8934 496.834 69.3467 496.834 68.68C496.834 67.96 496.461 67.4267 495.714 67.08C494.994 66.7067 493.834 66.3067 492.234 65.88C490.581 65.48 489.221 65.0667 488.154 64.64C487.114 64.2134 486.208 63.56 485.434 62.68C484.688 61.8 484.314 60.6134 484.314 59.12C484.314 57.8934 484.661 56.7734 485.354 55.76C486.074 54.7467 487.088 53.9467 488.394 53.36C489.728 52.7734 491.288 52.48 493.074 52.48C495.714 52.48 497.821 53.1467 499.394 54.48C500.968 55.7867 501.834 57.56 501.994 59.8H496.634C496.554 58.92 496.181 58.2267 495.514 57.72C494.874 57.1867 494.008 56.92 492.914 56.92C491.901 56.92 491.114 57.1067 490.554 57.48C490.021 57.8534 489.754 58.3734 489.754 59.04C489.754 59.7867 490.128 60.36 490.874 60.76C491.621 61.1334 492.781 61.52 494.354 61.92C495.954 62.32 497.274 62.7334 498.314 63.16C499.354 63.5867 500.248 64.2534 500.994 65.16C501.768 66.04 502.168 67.2134 502.194 68.68C502.194 69.96 501.834 71.1067 501.114 72.12C500.421 73.1334 499.408 73.9334 498.074 74.52C496.768 75.08 495.234 75.36 493.474 75.36Z" fill="#222222"/>
<path d="M192.14 103C192.02 103 191.94 102.947 191.9 102.84L191.18 100.5C191.167 100.46 191.14 100.44 191.1 100.44H185.48C185.44 100.44 185.413 100.46 185.4 100.5L184.68 102.84C184.64 102.947 184.56 103 184.44 103H182.82C182.673 103 182.62 102.927 182.66 102.78L187.04 89.16C187.08 89.0534 187.16 89 187.28 89H189.28C189.4 89 189.48 89.0534 189.52 89.16L193.94 102.78L193.96 102.86C193.96 102.953 193.9 103 193.78 103H192.14ZM185.9 98.82C185.887 98.8467 185.887 98.8734 185.9 98.9C185.927 98.9134 185.953 98.92 185.98 98.92H190.58C190.607 98.92 190.627 98.9134 190.64 98.9C190.667 98.8734 190.673 98.8467 190.66 98.82L188.34 91.4C188.327 91.3734 188.307 91.36 188.28 91.36C188.253 91.36 188.233 91.3734 188.22 91.4L185.9 98.82Z" fill="#222222"/>
<path d="M202.044 89.2C202.044 89.0667 202.111 89 202.244 89H203.764C203.898 89 203.964 89.0667 203.964 89.2V102.8C203.964 102.933 203.898 103 203.764 103H202.244C202.111 103 202.044 102.933 202.044 102.8V102.14C202.044 102.113 202.031 102.093 202.004 102.08C201.991 102.067 201.971 102.073 201.944 102.1C201.651 102.433 201.304 102.693 200.904 102.88C200.504 103.067 200.071 103.16 199.604 103.16C198.644 103.16 197.844 102.927 197.204 102.46C196.578 101.98 196.118 101.307 195.824 100.44C195.571 99.7334 195.444 98.88 195.444 97.88C195.444 96.9467 195.551 96.14 195.764 95.46C196.044 94.58 196.504 93.8934 197.144 93.4C197.784 92.9067 198.604 92.66 199.604 92.66C200.058 92.66 200.484 92.7534 200.884 92.94C201.298 93.1134 201.651 93.3667 201.944 93.7C201.971 93.7267 201.991 93.7334 202.004 93.72C202.031 93.7067 202.044 93.6867 202.044 93.66V89.2ZM201.544 100.42C201.851 99.86 202.004 99.02 202.004 97.9C202.004 96.78 201.838 95.9267 201.504 95.34C201.118 94.66 200.551 94.32 199.804 94.32C199.004 94.32 198.411 94.64 198.024 95.28C197.598 95.9467 197.384 96.8267 197.384 97.92C197.384 98.9467 197.551 99.7734 197.884 100.4C198.271 101.133 198.904 101.5 199.784 101.5C200.558 101.5 201.144 101.14 201.544 100.42Z" fill="#222222"/>
<path d="M209.459 103C209.339 103 209.259 102.947 209.219 102.84L205.959 93.04L205.939 92.96C205.939 92.8667 205.999 92.82 206.119 92.82H207.799C207.919 92.82 207.999 92.8734 208.039 92.98L210.239 100.22C210.252 100.247 210.272 100.26 210.299 100.26C210.326 100.26 210.346 100.247 210.359 100.22L212.539 92.98C212.579 92.8734 212.659 92.82 212.779 92.82L214.459 92.84C214.606 92.84 214.659 92.9134 214.619 93.06L211.379 102.84C211.339 102.947 211.259 103 211.139 103H209.459Z" fill="#222222"/>
<path d="M220.314 103.16C219.327 103.16 218.467 102.913 217.734 102.42C217.001 101.913 216.487 101.213 216.194 100.32C215.954 99.6 215.834 98.7867 215.834 97.88C215.834 96.9334 215.947 96.1334 216.174 95.48C216.467 94.6 216.981 93.9134 217.714 93.42C218.447 92.9134 219.321 92.66 220.334 92.66C221.294 92.66 222.127 92.9134 222.834 93.42C223.554 93.9134 224.067 94.5934 224.374 95.46C224.614 96.14 224.734 96.94 224.734 97.86C224.734 98.7934 224.614 99.6134 224.374 100.32C224.081 101.213 223.574 101.913 222.854 102.42C222.134 102.913 221.287 103.16 220.314 103.16ZM220.314 101.5C220.847 101.5 221.314 101.353 221.714 101.06C222.114 100.753 222.401 100.327 222.574 99.78C222.721 99.2734 222.794 98.6467 222.794 97.9C222.794 97.1534 222.727 96.5334 222.594 96.04C222.421 95.4934 222.134 95.0734 221.734 94.78C221.334 94.4734 220.847 94.32 220.274 94.32C219.727 94.32 219.254 94.4734 218.854 94.78C218.454 95.0734 218.167 95.4934 217.994 96.04C217.847 96.5067 217.774 97.1267 217.774 97.9C217.774 98.6734 217.847 99.3 217.994 99.78C218.154 100.327 218.434 100.753 218.834 101.06C219.247 101.353 219.741 101.5 220.314 101.5Z" fill="#222222"/>
<path d="M233.508 93.02C233.508 92.8867 233.574 92.82 233.708 92.82H235.228C235.361 92.82 235.428 92.8867 235.428 93.02V102.48C235.428 104.093 234.968 105.247 234.048 105.94C233.141 106.633 231.921 106.98 230.388 106.98C230.174 106.98 229.841 106.967 229.388 106.94C229.254 106.927 229.188 106.853 229.188 106.72L229.248 105.34C229.248 105.287 229.268 105.24 229.308 105.2C229.348 105.16 229.401 105.147 229.468 105.16C229.654 105.173 229.928 105.18 230.288 105.18C231.421 105.18 232.241 104.967 232.748 104.54C233.254 104.127 233.508 103.42 233.508 102.42V102.06C233.508 102.033 233.494 102.013 233.468 102C233.454 101.987 233.434 101.993 233.408 102.02C232.848 102.673 232.028 103 230.948 103C230.081 103 229.294 102.773 228.588 102.32C227.894 101.867 227.414 101.2 227.148 100.32C226.974 99.7334 226.888 98.92 226.888 97.88C226.888 96.7734 226.988 95.92 227.188 95.32C227.441 94.52 227.888 93.88 228.528 93.4C229.181 92.9067 229.948 92.66 230.828 92.66C231.921 92.66 232.781 92.9934 233.408 93.66C233.434 93.6867 233.454 93.7 233.468 93.7C233.494 93.6867 233.508 93.6667 233.508 93.64V93.02ZM233.388 99.74C233.428 99.5267 233.454 99.3 233.468 99.06C233.494 98.82 233.508 98.42 233.508 97.86C233.508 97.3 233.494 96.9067 233.468 96.68C233.454 96.44 233.421 96.2134 233.368 96C233.261 95.5067 233.021 95.1067 232.648 94.8C232.274 94.48 231.808 94.32 231.248 94.32C230.688 94.32 230.221 94.48 229.848 94.8C229.474 95.1067 229.208 95.5067 229.048 96C228.901 96.4 228.828 97.02 228.828 97.86C228.828 98.78 228.894 99.4067 229.028 99.74C229.161 100.233 229.421 100.64 229.808 100.96C230.208 101.267 230.688 101.42 231.248 101.42C231.834 101.42 232.308 101.267 232.668 100.96C233.041 100.64 233.281 100.233 233.388 99.74Z" fill="#222222"/>
<path d="M241.827 92.66C242.64 92.66 243.347 92.8067 243.947 93.1C244.56 93.38 245.027 93.78 245.347 94.3C245.68 94.8067 245.847 95.3867 245.847 96.04V102.8C245.847 102.933 245.78 103 245.647 103H244.127C243.994 103 243.927 102.933 243.927 102.8V102.08C243.927 102.013 243.894 102 243.827 102.04C243.48 102.4 243.054 102.68 242.547 102.88C242.054 103.067 241.5 103.16 240.887 103.16C239.9 103.16 239.08 102.913 238.427 102.42C237.787 101.913 237.467 101.153 237.467 100.14C237.467 99.1 237.827 98.2867 238.547 97.7C239.28 97.1 240.3 96.8 241.607 96.8H243.847C243.9 96.8 243.927 96.7734 243.927 96.72V96.18C243.927 95.5934 243.754 95.14 243.407 94.82C243.074 94.4867 242.56 94.32 241.867 94.32C241.307 94.32 240.847 94.4334 240.487 94.66C240.14 94.8734 239.927 95.1667 239.847 95.54C239.807 95.6734 239.727 95.7334 239.607 95.72L237.987 95.5C237.854 95.4734 237.794 95.42 237.807 95.34C237.914 94.5534 238.334 93.9134 239.067 93.42C239.8 92.9134 240.72 92.66 241.827 92.66ZM241.307 101.54C242.014 101.54 242.627 101.353 243.147 100.98C243.667 100.607 243.927 100.133 243.927 99.56V98.38C243.927 98.3267 243.9 98.3 243.847 98.3H241.967C241.18 98.3 240.554 98.4534 240.087 98.76C239.62 99.0667 239.387 99.4934 239.387 100.04C239.387 100.533 239.56 100.907 239.907 101.16C240.267 101.413 240.734 101.54 241.307 101.54Z" fill="#222222"/>
<path d="M254.759 89.2C254.759 89.0667 254.826 89 254.959 89H256.479C256.612 89 256.679 89.0667 256.679 89.2V102.8C256.679 102.933 256.612 103 256.479 103H254.959C254.826 103 254.759 102.933 254.759 102.8V102.14C254.759 102.113 254.746 102.093 254.719 102.08C254.706 102.067 254.686 102.073 254.659 102.1C254.366 102.433 254.019 102.693 253.619 102.88C253.219 103.067 252.786 103.16 252.319 103.16C251.359 103.16 250.559 102.927 249.919 102.46C249.292 101.98 248.832 101.307 248.539 100.44C248.286 99.7334 248.159 98.88 248.159 97.88C248.159 96.9467 248.266 96.14 248.479 95.46C248.759 94.58 249.219 93.8934 249.859 93.4C250.499 92.9067 251.319 92.66 252.319 92.66C252.772 92.66 253.199 92.7534 253.599 92.94C254.012 93.1134 254.366 93.3667 254.659 93.7C254.686 93.7267 254.706 93.7334 254.719 93.72C254.746 93.7067 254.759 93.6867 254.759 93.66V89.2ZM254.259 100.42C254.566 99.86 254.719 99.02 254.719 97.9C254.719 96.78 254.552 95.9267 254.219 95.34C253.832 94.66 253.266 94.32 252.519 94.32C251.719 94.32 251.126 94.64 250.739 95.28C250.312 95.9467 250.099 96.8267 250.099 97.92C250.099 98.9467 250.266 99.7734 250.599 100.4C250.986 101.133 251.619 101.5 252.499 101.5C253.272 101.5 253.859 101.14 254.259 100.42Z" fill="#222222"/>
<path d="M263.654 103.16C262.667 103.16 261.807 102.913 261.074 102.42C260.34 101.913 259.827 101.213 259.534 100.32C259.294 99.6 259.174 98.7867 259.174 97.88C259.174 96.9334 259.287 96.1334 259.514 95.48C259.807 94.6 260.32 93.9134 261.054 93.42C261.787 92.9134 262.66 92.66 263.674 92.66C264.634 92.66 265.467 92.9134 266.174 93.42C266.894 93.9134 267.407 94.5934 267.714 95.46C267.954 96.14 268.074 96.94 268.074 97.86C268.074 98.7934 267.954 99.6134 267.714 100.32C267.42 101.213 266.914 101.913 266.194 102.42C265.474 102.913 264.627 103.16 263.654 103.16ZM263.654 101.5C264.187 101.5 264.654 101.353 265.054 101.06C265.454 100.753 265.74 100.327 265.914 99.78C266.06 99.2734 266.134 98.6467 266.134 97.9C266.134 97.1534 266.067 96.5334 265.934 96.04C265.76 95.4934 265.474 95.0734 265.074 94.78C264.674 94.4734 264.187 94.32 263.614 94.32C263.067 94.32 262.594 94.4734 262.194 94.78C261.794 95.0734 261.507 95.4934 261.334 96.04C261.187 96.5067 261.114 97.1267 261.114 97.9C261.114 98.6734 261.187 99.3 261.334 99.78C261.494 100.327 261.774 100.753 262.174 101.06C262.587 101.353 263.08 101.5 263.654 101.5Z" fill="#222222"/>
<path d="M274.168 103.12C273.368 103.12 272.661 103 272.048 102.76C271.448 102.52 270.981 102.193 270.648 101.78C270.314 101.353 270.148 100.887 270.148 100.38V100.16C270.148 100.027 270.214 99.96 270.348 99.96H271.788C271.921 99.96 271.988 100.027 271.988 100.16V100.26C271.988 100.633 272.188 100.96 272.588 101.24C273.001 101.52 273.521 101.66 274.148 101.66C274.748 101.66 275.234 101.533 275.608 101.28C275.981 101.013 276.168 100.68 276.168 100.28C276.168 99.8934 275.994 99.6067 275.648 99.42C275.301 99.22 274.741 99.0134 273.968 98.8C273.208 98.5867 272.568 98.3734 272.048 98.16C271.541 97.9334 271.108 97.62 270.748 97.22C270.401 96.8067 270.228 96.28 270.228 95.64C270.228 94.7467 270.574 94.04 271.268 93.52C271.974 92.9867 272.908 92.72 274.068 92.72C274.841 92.72 275.521 92.8467 276.108 93.1C276.708 93.34 277.168 93.68 277.488 94.12C277.808 94.56 277.968 95.0534 277.968 95.6V95.66C277.968 95.7934 277.901 95.86 277.768 95.86H276.368C276.234 95.86 276.168 95.7934 276.168 95.66V95.6C276.168 95.2134 275.974 94.8934 275.588 94.64C275.214 94.3734 274.701 94.24 274.048 94.24C273.461 94.24 272.981 94.3534 272.608 94.58C272.248 94.8067 272.068 95.1134 272.068 95.5C272.068 95.8867 272.241 96.18 272.588 96.38C272.948 96.58 273.521 96.7934 274.308 97.02C275.081 97.2334 275.721 97.4467 276.228 97.66C276.748 97.86 277.188 98.1667 277.548 98.58C277.908 98.98 278.088 99.5067 278.088 100.16C278.088 101.067 277.728 101.787 277.008 102.32C276.301 102.853 275.354 103.12 274.168 103.12Z" fill="#222222"/>
<path d="M293.078 103C292.958 103 292.878 102.947 292.838 102.84L292.118 100.5C292.104 100.46 292.078 100.44 292.038 100.44H286.418C286.378 100.44 286.351 100.46 286.338 100.5L285.618 102.84C285.578 102.947 285.498 103 285.378 103H283.758C283.611 103 283.558 102.927 283.598 102.78L287.978 89.16C288.018 89.0534 288.098 89 288.218 89H290.218C290.338 89 290.418 89.0534 290.458 89.16L294.878 102.78L294.898 102.86C294.898 102.953 294.838 103 294.718 103H293.078ZM286.838 98.82C286.824 98.8467 286.824 98.8734 286.838 98.9C286.864 98.9134 286.891 98.92 286.918 98.92H291.518C291.544 98.92 291.564 98.9134 291.578 98.9C291.604 98.8734 291.611 98.8467 291.598 98.82L289.278 91.4C289.264 91.3734 289.244 91.36 289.218 91.36C289.191 91.36 289.171 91.3734 289.158 91.4L286.838 98.82Z" fill="#222222"/>
<path d="M300.515 103.12C299.715 103.12 299.009 103 298.395 102.76C297.795 102.52 297.329 102.193 296.995 101.78C296.662 101.353 296.495 100.887 296.495 100.38V100.16C296.495 100.027 296.562 99.96 296.695 99.96H298.135C298.269 99.96 298.335 100.027 298.335 100.16V100.26C298.335 100.633 298.535 100.96 298.935 101.24C299.349 101.52 299.869 101.66 300.495 101.66C301.095 101.66 301.582 101.533 301.955 101.28C302.329 101.013 302.515 100.68 302.515 100.28C302.515 99.8934 302.342 99.6067 301.995 99.42C301.649 99.22 301.089 99.0134 300.315 98.8C299.555 98.5867 298.915 98.3734 298.395 98.16C297.889 97.9334 297.455 97.62 297.095 97.22C296.749 96.8067 296.575 96.28 296.575 95.64C296.575 94.7467 296.922 94.04 297.615 93.52C298.322 92.9867 299.255 92.72 300.415 92.72C301.189 92.72 301.869 92.8467 302.455 93.1C303.055 93.34 303.515 93.68 303.835 94.12C304.155 94.56 304.315 95.0534 304.315 95.6V95.66C304.315 95.7934 304.249 95.86 304.115 95.86H302.715C302.582 95.86 302.515 95.7934 302.515 95.66V95.6C302.515 95.2134 302.322 94.8934 301.935 94.64C301.562 94.3734 301.049 94.24 300.395 94.24C299.809 94.24 299.329 94.3534 298.955 94.58C298.595 94.8067 298.415 95.1134 298.415 95.5C298.415 95.8867 298.589 96.18 298.935 96.38C299.295 96.58 299.869 96.7934 300.655 97.02C301.429 97.2334 302.069 97.4467 302.575 97.66C303.095 97.86 303.535 98.1667 303.895 98.58C304.255 98.98 304.435 99.5067 304.435 100.16C304.435 101.067 304.075 101.787 303.355 102.32C302.649 102.853 301.702 103.12 300.515 103.12Z" fill="#222222"/>
<path d="M310.027 103.12C309.227 103.12 308.52 103 307.907 102.76C307.307 102.52 306.84 102.193 306.507 101.78C306.174 101.353 306.007 100.887 306.007 100.38V100.16C306.007 100.027 306.074 99.96 306.207 99.96H307.647C307.78 99.96 307.847 100.027 307.847 100.16V100.26C307.847 100.633 308.047 100.96 308.447 101.24C308.86 101.52 309.38 101.66 310.007 101.66C310.607 101.66 311.094 101.533 311.467 101.28C311.84 101.013 312.027 100.68 312.027 100.28C312.027 99.8934 311.854 99.6067 311.507 99.42C311.16 99.22 310.6 99.0134 309.827 98.8C309.067 98.5867 308.427 98.3734 307.907 98.16C307.4 97.9334 306.967 97.62 306.607 97.22C306.26 96.8067 306.087 96.28 306.087 95.64C306.087 94.7467 306.434 94.04 307.127 93.52C307.834 92.9867 308.767 92.72 309.927 92.72C310.7 92.72 311.38 92.8467 311.967 93.1C312.567 93.34 313.027 93.68 313.347 94.12C313.667 94.56 313.827 95.0534 313.827 95.6V95.66C313.827 95.7934 313.76 95.86 313.627 95.86H312.227C312.094 95.86 312.027 95.7934 312.027 95.66V95.6C312.027 95.2134 311.834 94.8934 311.447 94.64C311.074 94.3734 310.56 94.24 309.907 94.24C309.32 94.24 308.84 94.3534 308.467 94.58C308.107 94.8067 307.927 95.1134 307.927 95.5C307.927 95.8867 308.1 96.18 308.447 96.38C308.807 96.58 309.38 96.7934 310.167 97.02C310.94 97.2334 311.58 97.4467 312.087 97.66C312.607 97.86 313.047 98.1667 313.407 98.58C313.767 98.98 313.947 99.5067 313.947 100.16C313.947 101.067 313.587 101.787 312.867 102.32C312.16 102.853 311.214 103.12 310.027 103.12Z" fill="#222222"/>
<path d="M320.353 103.16C319.366 103.16 318.506 102.913 317.773 102.42C317.04 101.913 316.526 101.213 316.233 100.32C315.993 99.6 315.873 98.7867 315.873 97.88C315.873 96.9334 315.986 96.1334 316.213 95.48C316.506 94.6 317.02 93.9134 317.753 93.42C318.486 92.9134 319.36 92.66 320.373 92.66C321.333 92.66 322.166 92.9134 322.873 93.42C323.593 93.9134 324.106 94.5934 324.413 95.46C324.653 96.14 324.773 96.94 324.773 97.86C324.773 98.7934 324.653 99.6134 324.413 100.32C324.12 101.213 323.613 101.913 322.893 102.42C322.173 102.913 321.326 103.16 320.353 103.16ZM320.353 101.5C320.886 101.5 321.353 101.353 321.753 101.06C322.153 100.753 322.44 100.327 322.613 99.78C322.76 99.2734 322.833 98.6467 322.833 97.9C322.833 97.1534 322.766 96.5334 322.633 96.04C322.46 95.4934 322.173 95.0734 321.773 94.78C321.373 94.4734 320.886 94.32 320.313 94.32C319.766 94.32 319.293 94.4734 318.893 94.78C318.493 95.0734 318.206 95.4934 318.033 96.04C317.886 96.5067 317.813 97.1267 317.813 97.9C317.813 98.6734 317.886 99.3 318.033 99.78C318.193 100.327 318.473 100.753 318.873 101.06C319.286 101.353 319.78 101.5 320.353 101.5Z" fill="#222222"/>
<path d="M331.367 103.16C330.353 103.16 329.487 102.907 328.767 102.4C328.047 101.88 327.553 101.18 327.287 100.3C327.087 99.6867 326.987 98.88 326.987 97.88C326.987 96.96 327.087 96.1534 327.287 95.46C327.553 94.6067 328.047 93.9267 328.767 93.42C329.5 92.9134 330.367 92.66 331.367 92.66C332.367 92.66 333.24 92.9134 333.987 93.42C334.733 93.9267 335.22 94.5667 335.447 95.34C335.527 95.5534 335.58 95.7734 335.607 96C335.607 96.1067 335.547 96.1734 335.427 96.2L333.927 96.42H333.887C333.793 96.42 333.727 96.36 333.687 96.24L333.627 95.92C333.52 95.4667 333.26 95.0867 332.847 94.78C332.433 94.4734 331.933 94.32 331.347 94.32C330.773 94.32 330.287 94.4734 329.887 94.78C329.487 95.0867 329.227 95.4934 329.107 96C328.987 96.48 328.927 97.1134 328.927 97.9C328.927 98.6734 328.987 99.3 329.107 99.78C329.24 100.313 329.5 100.733 329.887 101.04C330.287 101.347 330.773 101.5 331.347 101.5C331.933 101.5 332.433 101.347 332.847 101.04C333.273 100.733 333.54 100.333 333.647 99.84C333.66 99.8267 333.66 99.8134 333.647 99.8C333.647 99.7734 333.653 99.7534 333.667 99.74V99.66C333.707 99.5534 333.78 99.5134 333.887 99.54L335.387 99.78C335.493 99.8067 335.547 99.86 335.547 99.94V100.02C335.547 100.14 335.513 100.287 335.447 100.46C335.22 101.273 334.733 101.927 333.987 102.42C333.24 102.913 332.367 103.16 331.367 103.16Z" fill="#222222"/>
<path d="M338.974 91.22C338.601 91.22 338.294 91.1 338.054 90.86C337.814 90.62 337.694 90.3134 337.694 89.94C337.694 89.5667 337.814 89.26 338.054 89.02C338.294 88.78 338.601 88.66 338.974 88.66C339.347 88.66 339.654 88.78 339.894 89.02C340.134 89.26 340.254 89.5667 340.254 89.94C340.254 90.3134 340.134 90.62 339.894 90.86C339.654 91.1 339.347 91.22 338.974 91.22ZM338.174 102.98C338.041 102.98 337.974 102.913 337.974 102.78V93.02C337.974 92.8867 338.041 92.82 338.174 92.82H339.694C339.827 92.82 339.894 92.8867 339.894 93.02V102.78C339.894 102.913 339.827 102.98 339.694 102.98H338.174Z" fill="#222222"/>
<path d="M346.632 92.66C347.445 92.66 348.152 92.8067 348.752 93.1C349.365 93.38 349.832 93.78 350.152 94.3C350.485 94.8067 350.652 95.3867 350.652 96.04V102.8C350.652 102.933 350.585 103 350.452 103H348.932C348.798 103 348.732 102.933 348.732 102.8V102.08C348.732 102.013 348.698 102 348.632 102.04C348.285 102.4 347.858 102.68 347.352 102.88C346.858 103.067 346.305 103.16 345.692 103.16C344.705 103.16 343.885 102.913 343.232 102.42C342.592 101.913 342.272 101.153 342.272 100.14C342.272 99.1 342.632 98.2867 343.352 97.7C344.085 97.1 345.105 96.8 346.412 96.8H348.652C348.705 96.8 348.732 96.7734 348.732 96.72V96.18C348.732 95.5934 348.558 95.14 348.212 94.82C347.878 94.4867 347.365 94.32 346.672 94.32C346.112 94.32 345.652 94.4334 345.292 94.66C344.945 94.8734 344.732 95.1667 344.652 95.54C344.612 95.6734 344.532 95.7334 344.412 95.72L342.792 95.5C342.658 95.4734 342.598 95.42 342.612 95.34C342.718 94.5534 343.138 93.9134 343.872 93.42C344.605 92.9134 345.525 92.66 346.632 92.66ZM346.112 101.54C346.818 101.54 347.432 101.353 347.952 100.98C348.472 100.607 348.732 100.133 348.732 99.56V98.38C348.732 98.3267 348.705 98.3 348.652 98.3H346.772C345.985 98.3 345.358 98.4534 344.892 98.76C344.425 99.0667 344.192 99.4934 344.192 100.04C344.192 100.533 344.365 100.907 344.712 101.16C345.072 101.413 345.538 101.54 346.112 101.54Z" fill="#222222"/>
<path d="M359.564 89.2C359.564 89.0667 359.63 89 359.764 89H361.284C361.417 89 361.484 89.0667 361.484 89.2V102.8C361.484 102.933 361.417 103 361.284 103H359.764C359.63 103 359.564 102.933 359.564 102.8V102.14C359.564 102.113 359.55 102.093 359.524 102.08C359.51 102.067 359.49 102.073 359.464 102.1C359.17 102.433 358.824 102.693 358.424 102.88C358.024 103.067 357.59 103.16 357.124 103.16C356.164 103.16 355.364 102.927 354.724 102.46C354.097 101.98 353.637 101.307 353.344 100.44C353.09 99.7334 352.964 98.88 352.964 97.88C352.964 96.9467 353.07 96.14 353.284 95.46C353.564 94.58 354.024 93.8934 354.664 93.4C355.304 92.9067 356.124 92.66 357.124 92.66C357.577 92.66 358.004 92.7534 358.404 92.94C358.817 93.1134 359.17 93.3667 359.464 93.7C359.49 93.7267 359.51 93.7334 359.524 93.72C359.55 93.7067 359.564 93.6867 359.564 93.66V89.2ZM359.064 100.42C359.37 99.86 359.524 99.02 359.524 97.9C359.524 96.78 359.357 95.9267 359.024 95.34C358.637 94.66 358.07 94.32 357.324 94.32C356.524 94.32 355.93 94.64 355.544 95.28C355.117 95.9467 354.904 96.8267 354.904 97.92C354.904 98.9467 355.07 99.7734 355.404 100.4C355.79 101.133 356.424 101.5 357.304 101.5C358.077 101.5 358.664 101.14 359.064 100.42Z" fill="#222222"/>
<path d="M368.458 103.16C367.472 103.16 366.612 102.913 365.878 102.42C365.145 101.913 364.632 101.213 364.338 100.32C364.098 99.6 363.978 98.7867 363.978 97.88C363.978 96.9334 364.092 96.1334 364.318 95.48C364.612 94.6 365.125 93.9134 365.858 93.42C366.592 92.9134 367.465 92.66 368.478 92.66C369.438 92.66 370.272 92.9134 370.978 93.42C371.698 93.9134 372.212 94.5934 372.518 95.46C372.758 96.14 372.878 96.94 372.878 97.86C372.878 98.7934 372.758 99.6134 372.518 100.32C372.225 101.213 371.718 101.913 370.998 102.42C370.278 102.913 369.432 103.16 368.458 103.16ZM368.458 101.5C368.992 101.5 369.458 101.353 369.858 101.06C370.258 100.753 370.545 100.327 370.718 99.78C370.865 99.2734 370.938 98.6467 370.938 97.9C370.938 97.1534 370.872 96.5334 370.738 96.04C370.565 95.4934 370.278 95.0734 369.878 94.78C369.478 94.4734 368.992 94.32 368.418 94.32C367.872 94.32 367.398 94.4734 366.998 94.78C366.598 95.0734 366.312 95.4934 366.138 96.04C365.992 96.5067 365.918 97.1267 365.918 97.9C365.918 98.6734 365.992 99.3 366.138 99.78C366.298 100.327 366.578 100.753 366.978 101.06C367.392 101.353 367.885 101.5 368.458 101.5Z" fill="#222222"/>
<path d="M378.972 103.12C378.172 103.12 377.466 103 376.852 102.76C376.252 102.52 375.786 102.193 375.452 101.78C375.119 101.353 374.952 100.887 374.952 100.38V100.16C374.952 100.027 375.019 99.96 375.152 99.96H376.592C376.726 99.96 376.792 100.027 376.792 100.16V100.26C376.792 100.633 376.992 100.96 377.392 101.24C377.806 101.52 378.326 101.66 378.952 101.66C379.552 101.66 380.039 101.533 380.412 101.28C380.786 101.013 380.972 100.68 380.972 100.28C380.972 99.8934 380.799 99.6067 380.452 99.42C380.106 99.22 379.546 99.0134 378.772 98.8C378.012 98.5867 377.372 98.3734 376.852 98.16C376.346 97.9334 375.912 97.62 375.552 97.22C375.206 96.8067 375.032 96.28 375.032 95.64C375.032 94.7467 375.379 94.04 376.072 93.52C376.779 92.9867 377.712 92.72 378.872 92.72C379.646 92.72 380.326 92.8467 380.912 93.1C381.512 93.34 381.972 93.68 382.292 94.12C382.612 94.56 382.772 95.0534 382.772 95.6V95.66C382.772 95.7934 382.706 95.86 382.572 95.86H381.172C381.039 95.86 380.972 95.7934 380.972 95.66V95.6C380.972 95.2134 380.779 94.8934 380.392 94.64C380.019 94.3734 379.506 94.24 378.852 94.24C378.266 94.24 377.786 94.3534 377.412 94.58C377.052 94.8067 376.872 95.1134 376.872 95.5C376.872 95.8867 377.046 96.18 377.392 96.38C377.752 96.58 378.326 96.7934 379.112 97.02C379.886 97.2334 380.526 97.4467 381.032 97.66C381.552 97.86 381.992 98.1667 382.352 98.58C382.712 98.98 382.892 99.5067 382.892 100.16C382.892 101.067 382.532 101.787 381.812 102.32C381.106 102.853 380.159 103.12 378.972 103.12Z" fill="#222222"/>
</svg>
