<?xml version="1.0" encoding="UTF-8"?>
<svg id="Camada_2" data-name="Camada 2" xmlns="http://www.w3.org/2000/svg" viewBox="0 0 455.07 144.34">
  <defs>
    <style>
      .cls-1 {
        fill: #fff;
      }
    </style>
  </defs>
  <g id="Layer_1" data-name="Layer 1">
    <g>
      <g>
        <path class="cls-1" d="m69.66,80.58v16.52h-36.86v-1.27h4.71v-47.32h-4.71v-1.27h18.39v1.27h-5.23v47.32h8.75c2.29,0,4.3-.11,6.02-.34,1.72-.22,3.15-.83,4.3-1.83,1.15-1,2.01-2.52,2.58-4.56.57-2.04.86-4.88.86-8.52h1.2Z"/>
        <path class="cls-1" d="m111.53,60.44h-1.35c-.1-2.95-.5-5.24-1.2-6.86-.7-1.62-1.66-2.81-2.88-3.56-1.22-.75-2.67-1.19-4.34-1.31-1.67-.12-3.5-.19-5.49-.19h-7.03v22.27h2.47c1.69,0,3.19-.04,4.49-.11,1.3-.07,2.38-.4,3.25-.97.87-.57,1.52-1.47,1.94-2.69.42-1.22.64-3,.64-5.35h1.2v19.51h-1.2c-.05-1.94-.27-3.5-.67-4.67-.4-1.17-.95-2.07-1.64-2.69-.7-.62-1.52-1.03-2.47-1.23-.95-.2-2.02-.3-3.21-.3h-2.09c-.4,0-.85.01-1.35.04-.5.03-.95.04-1.35.04v23.47h4.41v1.27h-16.75v-1.27h3.66v-47.32h-3.66v-1.27h34.54l.07,13.2Z"/>
      </g>
      <path class="cls-1" d="m72.17,144.34C32.37,144.34,0,111.96,0,72.17S32.37,0,72.17,0s72.17,32.37,72.17,72.17-32.37,72.17-72.17,72.17Zm0-134.21c-34.21,0-62.04,27.83-62.04,62.04s27.83,62.04,62.04,62.04,62.04-27.83,62.04-62.04S106.38,10.12,72.17,10.12Z"/>
    </g>
    <g>
      <path class="cls-1" d="m173.75,66.44v6.51h-14.53v-.5h1.86v-18.66h-1.86v-.5h7.25v.5h-2.06v18.66h3.45c.9,0,1.69-.04,2.37-.13.68-.09,1.24-.33,1.69-.72.45-.39.79-.99,1.02-1.8.23-.81.34-1.93.34-3.36h.47Z"/>
      <path class="cls-1" d="m181.65,72.36h2.86c.9,0,1.74-.02,2.52-.07.78-.05,1.45-.24,2.02-.56.57-.32,1.02-.84,1.36-1.55.33-.71.5-1.72.5-3.04h.5v5.81h-14.8v-.5h1.47v-18.66h-1.47v-.5h14.77l.03,4.83h-.5c-.16-1.08-.44-1.91-.84-2.49-.4-.58-.89-1-1.47-1.27-.58-.26-1.24-.41-1.97-.44-.74-.03-1.53-.04-2.37-.04h-2.59v8.69h.77c.61,0,1.14-.02,1.61-.06.46-.04.85-.17,1.16-.38.31-.22.55-.56.71-1.02.16-.46.25-1.11.26-1.93h.47v7.43h-.47c-.02-.75-.09-1.34-.22-1.78-.13-.44-.31-.78-.55-1-.24-.23-.52-.37-.85-.44-.33-.07-.72-.1-1.15-.1h-1.74v9.08Z"/>
      <path class="cls-1" d="m202.6,52.91c1.12,0,2.15.3,3.08.9.93.6,1.74,1.39,2.42,2.36s1.2,2.07,1.58,3.3c.37,1.23.56,2.46.56,3.7s-.19,2.49-.56,3.7-.9,2.29-1.58,3.24-1.48,1.72-2.42,2.31c-.93.59-1.96.88-3.08.88s-2.18-.3-3.12-.9c-.94-.6-1.75-1.39-2.42-2.37-.67-.98-1.19-2.09-1.56-3.33-.37-1.24-.56-2.5-.56-3.77s.2-2.43.6-3.63c.4-1.2.95-2.27,1.65-3.21.7-.94,1.51-1.71,2.43-2.3.92-.59,1.92-.88,2.98-.88Zm.06.47c-.63,0-1.17.16-1.62.49-.45.32-.84.76-1.15,1.3-.32.54-.57,1.15-.75,1.83-.19.68-.33,1.38-.44,2.09-.11.72-.18,1.42-.22,2.12-.04.7-.06,1.32-.06,1.87s.01,1.2.04,1.9c.03.7.09,1.4.19,2.12.1.72.24,1.42.41,2.11s.42,1.3.72,1.84c.3.54.68.97,1.13,1.3.45.32,1,.49,1.65.49s1.2-.17,1.65-.5c.45-.33.83-.77,1.12-1.31.29-.54.52-1.16.68-1.86.16-.7.27-1.4.35-2.12.08-.72.13-1.42.15-2.12.02-.7.03-1.32.03-1.87,0-.49-.01-1.07-.04-1.74-.03-.67-.09-1.36-.19-2.06-.1-.71-.23-1.41-.4-2.12-.17-.71-.4-1.34-.69-1.89-.29-.55-.65-1-1.06-1.34s-.91-.52-1.5-.52Z"/>
      <path class="cls-1" d="m213.36,72.45c.59,0,1.05-.01,1.38-.04s.58-.13.72-.29c.15-.17.24-.42.26-.77.03-.34.04-.84.04-1.49v-15.68l-.38-.38h-2.03v-.5h5.92l8.55,14.03v-11.08c0-.63-.02-1.11-.04-1.44-.03-.33-.1-.57-.22-.72-.12-.15-.29-.23-.52-.25-.23-.02-.54-.03-.93-.03h-.65v-.5h5.33v.5h-.68c-.39,0-.71.01-.94.03-.24.02-.41.1-.53.25-.12.15-.19.39-.22.72-.03.33-.04.82-.04,1.44v16.86h-1.47l-10.58-17.51v13.76c0,.79,0,1.39.03,1.81s.1.73.25.91c.15.19.39.29.72.32s.82.04,1.44.04v.5h-5.42v-.5Z"/>
      <path class="cls-1" d="m232.52,72.45c.43,0,.79-.03,1.06-.09.28-.06.5-.17.68-.32.18-.16.32-.39.44-.69.12-.3.26-.69.41-1.16.85-2.87,1.7-5.73,2.56-8.59.86-2.86,1.73-5.72,2.59-8.59h1l6.28,19.45h1.3v.5h-7.04v-.5h1.97l-1.89-5.92h-5.13l-.21.59c-.1.29-.22.67-.35,1.12s-.27.9-.4,1.36c-.13.45-.24.87-.34,1.24-.1.37-.15.63-.15.77,0,.24.09.41.28.53.19.12.41.2.66.25.26.05.52.07.78.07h.69v.5h-5.22v-.5Zm4.39-6.43h4.83l-2.48-7.72-2.36,7.72Z"/>
      <path class="cls-1" d="m255.59,72.45h1.8v.5h-6.66v-.5h1.62v-18.66h-1.62v-.5h8.52c.65,0,1.29.08,1.92.24s1.18.42,1.67.78c.48.36.87.85,1.18,1.44.3.6.46,1.35.46,2.25,0,.69-.1,1.29-.31,1.8-.21.51-.49.95-.84,1.31-.35.36-.77.66-1.24.9-.47.24-.97.41-1.5.53v.32c.82.22,1.47.57,1.93,1.05.46.48.81,1.03,1.05,1.64.24.61.38,1.25.44,1.93.06.68.1,1.32.12,1.93.02.43.04.84.07,1.22.03.38.08.72.16,1,.08.29.2.51.35.68.16.17.37.25.65.25.18,0,.34-.02.5-.07.16-.05.31-.1.47-.16.02,0,.04,0,.06-.03l.18.44c-.33.16-.66.27-.99.32-.32.06-.65.09-.99.09-.87,0-1.54-.13-2.03-.38-.49-.25-.87-.61-1.14-1.06-.26-.45-.44-.99-.53-1.62-.09-.63-.16-1.33-.22-2.09-.02-.24-.04-.48-.06-.74s-.05-.52-.09-.8c-.1-.84-.3-1.5-.6-1.97-.31-.47-.68-.82-1.12-1.05s-.94-.36-1.49-.41c-.55-.05-1.12-.07-1.71-.07v9.49Zm0-18.66v8.69h.94c.55,0,1.09-.08,1.64-.24.54-.16,1.02-.41,1.43-.75s.75-.79,1-1.33c.26-.54.38-1.2.38-1.99,0-.88-.12-1.61-.35-2.18-.24-.57-.56-1.02-.97-1.34-.41-.32-.89-.55-1.44-.68s-1.14-.19-1.77-.19h-.85Z"/>
      <path class="cls-1" d="m269.39,53.29h6.1c1.38,0,2.68.16,3.92.47,1.24.31,2.32.85,3.26,1.61.93.76,1.67,1.77,2.23,3.05.55,1.28.82,2.87.82,4.77s-.26,3.42-.78,4.67c-.52,1.25-1.23,2.25-2.12,2.99-.89.75-1.94,1.28-3.12,1.61s-2.46.49-3.82.49h-6.48v-.5h1.68v-18.63h-1.68v-.53Zm5.16.53v18.63c1.41,0,2.6-.19,3.57-.57.96-.38,1.74-.97,2.33-1.75.59-.79,1.01-1.77,1.27-2.96s.38-2.59.38-4.2c0-1.32-.14-2.53-.41-3.65-.28-1.12-.69-2.09-1.25-2.9-.56-.82-1.27-1.45-2.12-1.92-.85-.46-1.86-.69-3.02-.69l-.74.03Z"/>
      <path class="cls-1" d="m297.09,52.91c1.12,0,2.15.3,3.08.9.93.6,1.74,1.39,2.42,2.36s1.2,2.07,1.58,3.3c.37,1.23.56,2.46.56,3.7s-.19,2.49-.56,3.7-.9,2.29-1.58,3.24-1.48,1.72-2.42,2.31c-.93.59-1.96.88-3.08.88s-2.18-.3-3.12-.9c-.94-.6-1.75-1.39-2.42-2.37-.67-.98-1.19-2.09-1.56-3.33-.37-1.24-.56-2.5-.56-3.77s.2-2.43.6-3.63c.4-1.2.95-2.27,1.65-3.21.7-.94,1.51-1.71,2.43-2.3.92-.59,1.92-.88,2.98-.88Zm.06.47c-.63,0-1.17.16-1.62.49-.45.32-.84.76-1.15,1.3-.32.54-.57,1.15-.75,1.83-.19.68-.33,1.38-.44,2.09-.11.72-.18,1.42-.22,2.12-.04.7-.06,1.32-.06,1.87s.01,1.2.04,1.9c.03.7.09,1.4.19,2.12.1.72.24,1.42.41,2.11s.42,1.3.72,1.84c.3.54.68.97,1.13,1.3.45.32,1,.49,1.65.49s1.2-.17,1.65-.5c.45-.33.83-.77,1.12-1.31.29-.54.52-1.16.68-1.86.16-.7.27-1.4.35-2.12.08-.72.13-1.42.15-2.12.02-.7.03-1.32.03-1.87,0-.49-.01-1.07-.04-1.74-.03-.67-.09-1.36-.19-2.06-.1-.71-.23-1.41-.4-2.12-.17-.71-.4-1.34-.69-1.89-.29-.55-.65-1-1.06-1.34s-.91-.52-1.5-.52Z"/>
      <path class="cls-1" d="m334.49,58.5h-.53c-.04-1.16-.2-2.06-.47-2.7s-.65-1.11-1.13-1.4c-.48-.3-1.05-.47-1.71-.52-.66-.05-1.38-.07-2.17-.07h-2.77v8.78h.97c.67,0,1.26-.01,1.77-.04.51-.03.94-.16,1.28-.38s.6-.58.77-1.06c.17-.48.25-1.18.25-2.11h.47v7.69h-.47c-.02-.77-.11-1.38-.26-1.84-.16-.46-.37-.82-.65-1.06-.28-.25-.6-.41-.97-.49-.37-.08-.8-.12-1.27-.12h-.82c-.16,0-.33,0-.53.01-.2.01-.37.01-.53.01v9.25h1.74v.5h-6.6v-.5h1.44v-18.66h-1.44v-.5h13.62l.03,5.2Z"/>
      <path class="cls-1" d="m342.36,72.36h2.86c.9,0,1.74-.02,2.52-.07.78-.05,1.45-.24,2.02-.56.57-.32,1.02-.84,1.36-1.55.33-.71.5-1.72.5-3.04h.5v5.81h-14.8v-.5h1.47v-18.66h-1.47v-.5h14.77l.03,4.83h-.5c-.16-1.08-.44-1.91-.84-2.49-.4-.58-.89-1-1.47-1.27-.58-.26-1.24-.41-1.97-.44-.74-.03-1.53-.04-2.37-.04h-2.59v8.69h.77c.61,0,1.14-.02,1.61-.06.46-.04.85-.17,1.16-.38.31-.22.55-.56.71-1.02.16-.46.25-1.11.26-1.93h.47v7.43h-.47c-.02-.75-.09-1.34-.22-1.78-.13-.44-.31-.78-.55-1-.24-.23-.52-.37-.85-.44-.33-.07-.72-.1-1.15-.1h-1.74v9.08Z"/>
      <path class="cls-1" d="m360.1,72.45h1.8v.5h-6.66v-.5h1.62v-18.66h-1.62v-.5h8.52c.65,0,1.29.08,1.92.24s1.18.42,1.67.78c.48.36.87.85,1.18,1.44.3.6.46,1.35.46,2.25,0,.69-.1,1.29-.31,1.8-.21.51-.49.95-.84,1.31-.35.36-.77.66-1.24.9-.47.24-.97.41-1.5.53v.32c.82.22,1.47.57,1.93,1.05.46.48.81,1.03,1.05,1.64.24.61.38,1.25.44,1.93.06.68.1,1.32.12,1.93.02.43.04.84.07,1.22.03.38.08.72.16,1,.08.29.2.51.35.68.16.17.37.25.65.25.18,0,.34-.02.5-.07.16-.05.31-.1.47-.16.02,0,.04,0,.06-.03l.18.44c-.33.16-.66.27-.99.32-.32.06-.65.09-.99.09-.87,0-1.54-.13-2.03-.38-.49-.25-.87-.61-1.14-1.06-.26-.45-.44-.99-.53-1.62-.09-.63-.16-1.33-.22-2.09-.02-.24-.04-.48-.06-.74s-.05-.52-.09-.8c-.1-.84-.3-1.5-.6-1.97-.31-.47-.68-.82-1.12-1.05s-.94-.36-1.49-.41c-.55-.05-1.12-.07-1.71-.07v9.49Zm0-18.66v8.69h.94c.55,0,1.09-.08,1.64-.24.54-.16,1.02-.41,1.43-.75s.75-.79,1-1.33c.26-.54.38-1.2.38-1.99,0-.88-.12-1.61-.35-2.18-.24-.57-.56-1.02-.97-1.34-.41-.32-.89-.55-1.44-.68s-1.14-.19-1.77-.19h-.85Z"/>
      <path class="cls-1" d="m378.76,72.45h1.8v.5h-6.66v-.5h1.62v-18.66h-1.62v-.5h8.52c.65,0,1.29.08,1.92.24s1.18.42,1.67.78c.48.36.87.85,1.18,1.44.3.6.46,1.35.46,2.25,0,.69-.1,1.29-.31,1.8-.21.51-.49.95-.84,1.31-.35.36-.77.66-1.24.9-.47.24-.97.41-1.5.53v.32c.82.22,1.47.57,1.93,1.05.46.48.81,1.03,1.05,1.64.24.61.38,1.25.44,1.93.06.68.1,1.32.12,1.93.02.43.04.84.07,1.22.03.38.08.72.16,1,.08.29.2.51.35.68.16.17.37.25.65.25.18,0,.34-.02.5-.07.16-.05.31-.1.47-.16.02,0,.04,0,.06-.03l.18.44c-.33.16-.66.27-.99.32-.32.06-.65.09-.99.09-.87,0-1.54-.13-2.03-.38-.49-.25-.87-.61-1.14-1.06-.26-.45-.44-.99-.53-1.62-.09-.63-.16-1.33-.22-2.09-.02-.24-.04-.48-.06-.74s-.05-.52-.09-.8c-.1-.84-.3-1.5-.6-1.97-.31-.47-.68-.82-1.12-1.05s-.94-.36-1.49-.41c-.55-.05-1.12-.07-1.71-.07v9.49Zm0-18.66v8.69h.94c.55,0,1.09-.08,1.64-.24.54-.16,1.02-.41,1.43-.75s.75-.79,1-1.33c.26-.54.38-1.2.38-1.99,0-.88-.12-1.61-.35-2.18-.24-.57-.56-1.02-.97-1.34-.41-.32-.89-.55-1.44-.68s-1.14-.19-1.77-.19h-.85Z"/>
      <path class="cls-1" d="m397.59,72.36h2.86c.9,0,1.74-.02,2.52-.07.78-.05,1.45-.24,2.02-.56.57-.32,1.02-.84,1.36-1.55.33-.71.5-1.72.5-3.04h.5v5.81h-14.8v-.5h1.47v-18.66h-1.47v-.5h14.77l.03,4.83h-.5c-.16-1.08-.44-1.91-.84-2.49-.4-.58-.89-1-1.47-1.27-.58-.26-1.24-.41-1.97-.44-.74-.03-1.53-.04-2.37-.04h-2.59v8.69h.77c.61,0,1.14-.02,1.61-.06.46-.04.85-.17,1.16-.38.31-.22.55-.56.71-1.02.16-.46.25-1.11.26-1.93h.47v7.43h-.47c-.02-.75-.09-1.34-.22-1.78-.13-.44-.31-.78-.55-1-.24-.23-.52-.37-.85-.44-.33-.07-.72-.1-1.15-.1h-1.74v9.08Z"/>
      <path class="cls-1" d="m410.59,53.29h7.34v.5h-2.12v18.66h2.12v.5h-7.34v-.5h1.86v-18.66h-1.86v-.5Z"/>
      <path class="cls-1" d="m425.89,72.45h1.8v.5h-6.66v-.5h1.62v-18.66h-1.62v-.5h8.52c.65,0,1.29.08,1.92.24s1.18.42,1.67.78c.48.36.87.85,1.18,1.44.31.6.46,1.35.46,2.25,0,.69-.1,1.29-.31,1.8-.21.51-.49.95-.84,1.31-.35.36-.77.66-1.24.9-.47.24-.97.41-1.5.53v.32c.82.22,1.47.57,1.93,1.05.46.48.81,1.03,1.05,1.64.24.61.38,1.25.44,1.93.06.68.1,1.32.12,1.93.02.43.04.84.07,1.22.03.38.08.72.16,1,.08.29.2.51.35.68.16.17.37.25.65.25.18,0,.34-.02.5-.07.16-.05.31-.1.47-.16.02,0,.04,0,.06-.03l.18.44c-.33.16-.66.27-.99.32-.32.06-.65.09-.99.09-.86,0-1.54-.13-2.03-.38-.49-.25-.87-.61-1.14-1.06-.26-.45-.44-.99-.53-1.62s-.16-1.33-.22-2.09c-.02-.24-.04-.48-.06-.74s-.05-.52-.09-.8c-.1-.84-.3-1.5-.6-1.97-.31-.47-.68-.82-1.12-1.05s-.94-.36-1.49-.41c-.55-.05-1.12-.07-1.71-.07v9.49Zm0-18.66v8.69h.94c.55,0,1.09-.08,1.64-.24.54-.16,1.02-.41,1.43-.75s.75-.79,1-1.33.38-1.2.38-1.99c0-.88-.12-1.61-.35-2.18-.24-.57-.56-1.02-.97-1.34-.41-.32-.89-.55-1.44-.68s-1.14-.19-1.77-.19h-.85Z"/>
      <path class="cls-1" d="m438.74,72.45c.43,0,.79-.03,1.06-.09.28-.06.5-.17.68-.32.18-.16.32-.39.44-.69.12-.3.26-.69.41-1.16.85-2.87,1.7-5.73,2.57-8.59.86-2.86,1.73-5.72,2.59-8.59h1l6.28,19.45h1.3v.5h-7.04v-.5h1.98l-1.89-5.92h-5.13l-.21.59c-.1.29-.22.67-.35,1.12-.14.45-.27.9-.4,1.36-.13.45-.24.87-.34,1.24-.1.37-.15.63-.15.77,0,.24.09.41.28.53.19.12.41.2.66.25s.52.07.78.07h.69v.5h-5.22v-.5Zm4.39-6.43h4.83l-2.48-7.72-2.36,7.72Z"/>
      <path class="cls-1" d="m188.16,100.02c.31,0,.56-.02.75-.06.2-.04.36-.12.48-.23s.23-.28.31-.49c.08-.22.18-.49.29-.83.6-2.04,1.21-4.07,1.82-6.1.61-2.03,1.23-4.07,1.84-6.1h.71l4.46,13.82h.92v.36h-5v-.36h1.4l-1.34-4.21h-3.64l-.15.42c-.07.21-.15.47-.25.8s-.19.64-.28.96c-.09.32-.17.61-.24.88-.07.27-.1.45-.1.54,0,.17.07.29.2.38.13.08.29.14.47.18.18.03.37.05.55.05h.49v.36h-3.71v-.36Zm3.12-4.56h3.43l-1.76-5.49-1.68,5.49Z"/>
      <path class="cls-1" d="m201.1,86.41h4.33c.98,0,1.91.11,2.78.34.88.22,1.65.6,2.31,1.14.66.54,1.19,1.26,1.58,2.17.39.91.59,2.04.59,3.39s-.19,2.43-.56,3.32c-.37.89-.87,1.59-1.51,2.13s-1.38.91-2.22,1.14c-.84.23-1.75.35-2.71.35h-4.61v-.36h1.19v-13.23h-1.19v-.38Zm3.66.38v13.23c1.01,0,1.85-.14,2.53-.41.68-.27,1.24-.69,1.65-1.25.42-.56.72-1.26.9-2.1s.27-1.84.27-2.98c0-.93-.1-1.8-.29-2.6-.2-.8-.49-1.48-.89-2.06-.4-.58-.9-1.03-1.51-1.36-.61-.33-1.32-.49-2.15-.49l-.52.02Z"/>
      <path class="cls-1" d="m214.23,86.41h5.15v.36h-1.34l2.91,9.63c.45-1.33.82-2.46,1.13-3.39s.57-1.72.77-2.37c.21-.64.37-1.15.49-1.54.12-.38.21-.69.26-.91.06-.22.09-.39.1-.49.01-.1.02-.19.02-.26,0-.18-.05-.32-.16-.41-.1-.09-.24-.16-.4-.2-.16-.04-.33-.06-.5-.06h-.51v-.36h3.85v.36h-.17c-.34,0-.59.01-.78.03-.18.02-.33.08-.44.19-.11.1-.21.27-.29.49-.08.22-.19.53-.31.92l-4.1,12.52-4.58-14.15h-1.11v-.36Z"/>
      <path class="cls-1" d="m232.78,86.14c.8,0,1.52.21,2.19.64.66.43,1.24.98,1.72,1.68s.85,1.47,1.12,2.34c.27.87.4,1.75.4,2.63s-.13,1.77-.4,2.63-.64,1.63-1.12,2.3-1.05,1.22-1.72,1.64c-.66.42-1.39.63-2.19.63s-1.55-.21-2.22-.64c-.67-.43-1.24-.99-1.72-1.69-.47-.7-.84-1.49-1.11-2.37-.27-.88-.4-1.77-.4-2.68s.14-1.72.43-2.58.68-1.61,1.17-2.28,1.07-1.21,1.73-1.63,1.36-.63,2.12-.63Zm.04.33c-.45,0-.83.12-1.15.35-.32.23-.59.54-.82.92s-.4.82-.53,1.3c-.13.48-.24.98-.31,1.49-.08.51-.13,1.01-.16,1.51-.03.5-.04.94-.04,1.33s.01.86.03,1.35.07,1,.14,1.51c.07.51.17,1.01.29,1.5.13.49.3.92.51,1.31.22.38.48.69.81.92s.71.35,1.17.35.85-.12,1.17-.36c.32-.24.59-.55.8-.93.21-.38.37-.82.48-1.32.11-.5.2-1,.25-1.51s.09-1.01.1-1.51c.01-.5.02-.94.02-1.33,0-.35-.01-.76-.03-1.24s-.07-.96-.14-1.47c-.07-.5-.16-1.01-.28-1.51-.12-.5-.28-.95-.49-1.34-.21-.39-.46-.71-.75-.95s-.65-.37-1.07-.37Z"/>
      <path class="cls-1" d="m250.5,90.89h-.42c-.07-.52-.18-1.02-.35-1.51-.16-.49-.37-.92-.62-1.3s-.56-.68-.92-.9c-.36-.22-.78-.33-1.26-.33-.77,0-1.38.23-1.82.68-.45.45-.79,1.02-1.02,1.69-.23.67-.38,1.39-.45,2.15-.07.76-.11,1.45-.13,2.06-.01.39,0,.82.02,1.3s.08.95.17,1.43c.08.48.2.95.35,1.41s.34.87.58,1.22c.24.36.52.64.86.86.33.22.73.32,1.17.32.63,0,1.17-.19,1.61-.57.45-.38.67-.98.67-1.82v-3.48h-1.24v-.36h4.9v.36h-1.21l-.04,6.16c-.17-.36-.33-.6-.48-.71-.15-.11-.32-.15-.49-.11-.17.04-.36.11-.56.22-.2.11-.43.21-.68.29-.41.17-.82.31-1.25.43s-.87.18-1.33.18c-.87,0-1.65-.17-2.35-.5-.7-.33-1.3-.81-1.8-1.42-.5-.61-.89-1.34-1.16-2.19-.27-.84-.41-1.78-.41-2.82,0-.96.14-1.89.41-2.78.27-.89.66-1.68,1.16-2.36.5-.68,1.1-1.22,1.79-1.62.69-.4,1.46-.61,2.29-.61.33,0,.64.06.92.17.28.11.54.23.8.37.25.13.49.26.71.37.22.11.45.17.69.17.2,0,.32-.07.38-.2.06-.13.09-.3.1-.49h.4v4.25Z"/>
      <path class="cls-1" d="m253.6,100.02c.31,0,.56-.02.75-.06.2-.04.36-.12.48-.23s.23-.28.31-.49c.08-.22.18-.49.29-.83.6-2.04,1.21-4.07,1.82-6.1.61-2.03,1.23-4.07,1.84-6.1h.71l4.46,13.82h.92v.36h-5v-.36h1.4l-1.34-4.21h-3.64l-.15.42c-.07.21-.15.47-.25.8s-.19.64-.28.96c-.09.32-.17.61-.24.88-.07.27-.1.45-.1.54,0,.17.07.29.2.38.13.08.29.14.47.18.18.03.37.05.55.05h.49v.36h-3.71v-.36Zm3.12-4.56h3.43l-1.76-5.49-1.68,5.49Z"/>
      <path class="cls-1" d="m266.54,86.41h4.33c.98,0,1.91.11,2.78.34.88.22,1.65.6,2.31,1.14.66.54,1.19,1.26,1.58,2.17.39.91.59,2.04.59,3.39s-.19,2.43-.56,3.32c-.37.89-.87,1.59-1.51,2.13s-1.38.91-2.22,1.14c-.84.23-1.75.35-2.71.35h-4.61v-.36h1.19v-13.23h-1.19v-.38Zm3.66.38v13.23c1.01,0,1.85-.14,2.53-.41.68-.27,1.24-.69,1.65-1.25.42-.56.72-1.26.9-2.1s.27-1.84.27-2.98c0-.93-.1-1.8-.29-2.6-.2-.8-.49-1.48-.89-2.06-.4-.58-.9-1.03-1.51-1.36-.61-.33-1.32-.49-2.15-.49l-.52.02Z"/>
      <path class="cls-1" d="m286.22,86.14c.8,0,1.52.21,2.19.64.66.43,1.24.98,1.72,1.68s.85,1.47,1.12,2.34c.27.87.4,1.75.4,2.63s-.13,1.77-.4,2.63-.64,1.63-1.12,2.3-1.05,1.22-1.72,1.64c-.66.42-1.39.63-2.19.63s-1.55-.21-2.22-.64c-.67-.43-1.24-.99-1.72-1.69-.47-.7-.84-1.49-1.11-2.37-.27-.88-.4-1.77-.4-2.68s.14-1.72.43-2.58.68-1.61,1.17-2.28,1.07-1.21,1.73-1.63,1.36-.63,2.12-.63Zm.04.33c-.45,0-.83.12-1.15.35-.32.23-.59.54-.82.92s-.4.82-.53,1.3c-.13.48-.24.98-.31,1.49-.08.51-.13,1.01-.16,1.51-.03.5-.04.94-.04,1.33s.01.86.03,1.35.07,1,.14,1.51c.07.51.17,1.01.29,1.5.13.49.3.92.51,1.31.22.38.48.69.81.92s.71.35,1.17.35.85-.12,1.17-.36c.32-.24.59-.55.8-.93.21-.38.37-.82.48-1.32.11-.5.2-1,.25-1.51s.09-1.01.1-1.51c.01-.5.02-.94.02-1.33,0-.35-.01-.76-.03-1.24s-.07-.96-.14-1.47c-.07-.5-.16-1.01-.28-1.51-.12-.5-.28-.95-.49-1.34-.21-.39-.46-.71-.75-.95s-.65-.37-1.07-.37Z"/>
      <path class="cls-1" d="m294.49,95.39h.31c.06.71.17,1.36.33,1.94s.41,1.08.72,1.5.71.74,1.18.97,1.04.35,1.7.35c.41,0,.77-.06,1.1-.19.33-.13.6-.3.82-.53.22-.23.36-.51.44-.83.08-.32.07-.67-.03-1.05-.11-.4-.38-.73-.81-.98-.43-.25-.92-.51-1.5-.77-.49-.22-.99-.47-1.5-.73-.51-.27-.98-.6-1.41-.99-.43-.4-.79-.88-1.06-1.43s-.41-1.24-.41-2.05c0-.13,0-.27.01-.42s.02-.31.05-.46c.15-1.13.54-1.97,1.15-2.52.61-.55,1.44-.85,2.49-.91.59-.01,1.07.08,1.47.27.39.2.71.38.96.57.24.2.43.29.59.29.2,0,.31-.09.36-.28.04-.19.06-.37.06-.53h.34v4.21h-.36c-.1-.61-.23-1.18-.4-1.69-.17-.51-.39-.94-.66-1.3-.27-.36-.6-.63-.99-.83-.39-.2-.86-.29-1.4-.29-.36,0-.71.05-1.05.15s-.62.25-.87.45c-.24.2-.43.46-.57.79s-.19.7-.16,1.15c.03.38.13.7.29.97.17.27.38.51.65.71.26.2.57.38.9.53.33.15.68.3,1.05.44.46.18.92.39,1.39.62.47.23.9.52,1.3.86.4.34.73.76,1,1.25.27.49.44,1.08.51,1.78.03.64-.05,1.22-.24,1.75s-.45.97-.8,1.35-.75.67-1.24.87c-.48.2-1,.3-1.56.3s-1.03-.08-1.44-.24c-.42-.16-.78-.32-1.09-.47-.17-.1-.33-.18-.47-.24-.15-.06-.29-.09-.43-.09-.15,0-.26.11-.32.33-.06.22-.1.42-.12.59h-.31v-5.13Z"/>
      <path class="cls-1" d="m310.68,100.1c.31,0,.56-.02.75-.06.2-.04.36-.12.48-.23.13-.11.23-.28.31-.49.08-.22.18-.49.29-.83.6-2.04,1.21-4.07,1.82-6.1.61-2.03,1.23-4.07,1.84-6.1h.71l4.46,13.82h.92v.36h-5v-.36h1.4l-1.34-4.21h-3.64l-.15.42c-.07.21-.15.47-.25.8s-.19.64-.28.96c-.09.32-.17.61-.24.88-.07.27-.1.45-.1.54,0,.17.07.29.2.38.13.08.29.14.47.18.18.03.37.05.55.05h.49v.36h-3.71v-.36Zm3.12-4.56h3.43l-1.76-5.49-1.68,5.49Z"/>
      <path class="cls-1" d="m324.12,95.47h.31c.06.71.17,1.36.33,1.94s.41,1.08.72,1.5c.31.42.71.74,1.18.97.47.23,1.04.35,1.7.35.4,0,.77-.06,1.1-.19.33-.13.6-.3.82-.53.22-.23.36-.51.44-.83.08-.32.07-.67-.03-1.05-.11-.4-.38-.73-.81-.98-.43-.25-.92-.51-1.5-.77-.49-.22-.99-.47-1.5-.73-.51-.27-.98-.6-1.41-.99-.43-.4-.79-.88-1.06-1.43-.27-.56-.41-1.24-.41-2.05,0-.13,0-.27.01-.42,0-.15.02-.31.05-.46.15-1.13.54-1.97,1.15-2.52.61-.55,1.44-.85,2.49-.91.59-.01,1.07.08,1.47.27.39.2.71.38.96.57.24.2.43.29.59.29.2,0,.31-.09.36-.28.04-.19.06-.37.06-.53h.33v4.21h-.36c-.1-.61-.23-1.18-.4-1.69-.17-.51-.39-.94-.66-1.3-.27-.36-.6-.63-.99-.83s-.86-.29-1.4-.29c-.36,0-.71.05-1.05.15-.33.1-.62.25-.87.45-.24.2-.43.46-.57.79-.13.32-.19.7-.16,1.15.03.38.13.7.29.97.17.27.38.51.65.71.27.2.57.38.9.53.33.15.68.3,1.05.44.46.18.92.39,1.39.62s.9.52,1.3.86c.4.34.73.76,1.01,1.25.27.49.44,1.08.51,1.78.03.64-.05,1.22-.24,1.75-.19.52-.45.97-.8,1.35-.34.38-.75.67-1.24.87-.48.2-1,.3-1.56.3s-1.03-.08-1.44-.24c-.42-.16-.78-.32-1.09-.47-.17-.1-.32-.18-.47-.24s-.29-.09-.43-.09c-.15,0-.26.11-.32.33-.06.22-.1.42-.11.59h-.31v-5.13Z"/>
      <path class="cls-1" d="m335.01,95.47h.31c.06.71.17,1.36.33,1.94s.41,1.08.72,1.5c.31.42.71.74,1.18.97.47.23,1.04.35,1.7.35.4,0,.77-.06,1.1-.19.33-.13.6-.3.82-.53.22-.23.36-.51.44-.83.08-.32.07-.67-.03-1.05-.11-.4-.38-.73-.81-.98-.43-.25-.92-.51-1.5-.77-.49-.22-.99-.47-1.5-.73-.51-.27-.98-.6-1.41-.99-.43-.4-.79-.88-1.06-1.43-.27-.56-.41-1.24-.41-2.05,0-.13,0-.27.01-.42,0-.15.02-.31.05-.46.15-1.13.54-1.97,1.15-2.52.61-.55,1.44-.85,2.49-.91.59-.01,1.07.08,1.47.27.39.2.71.38.96.57.24.2.43.29.59.29.2,0,.31-.09.36-.28.04-.19.06-.37.06-.53h.33v4.21h-.36c-.1-.61-.23-1.18-.4-1.69-.17-.51-.39-.94-.66-1.3-.27-.36-.6-.63-.99-.83s-.86-.29-1.4-.29c-.36,0-.71.05-1.05.15-.33.1-.62.25-.87.45-.24.2-.43.46-.57.79-.13.32-.19.7-.16,1.15.03.38.13.7.29.97.17.27.38.51.65.71.27.2.57.38.9.53.33.15.68.3,1.05.44.46.18.92.39,1.39.62s.9.52,1.3.86c.4.34.73.76,1.01,1.25.27.49.44,1.08.51,1.78.03.64-.05,1.22-.24,1.75-.19.52-.45.97-.8,1.35-.34.38-.75.67-1.24.87-.48.2-1,.3-1.56.3s-1.03-.08-1.44-.24c-.42-.16-.78-.32-1.09-.47-.17-.1-.32-.18-.47-.24s-.29-.09-.43-.09c-.15,0-.26.11-.32.33-.06.22-.1.42-.11.59h-.31v-5.13Z"/>
      <path class="cls-1" d="m351.13,86.22c.8,0,1.53.21,2.19.64.66.43,1.24.98,1.72,1.68s.85,1.47,1.12,2.34c.27.87.4,1.75.4,2.63s-.13,1.77-.4,2.63-.64,1.63-1.12,2.3-1.05,1.22-1.72,1.64c-.66.42-1.39.63-2.19.63s-1.55-.21-2.22-.64c-.67-.43-1.24-.99-1.72-1.69-.47-.7-.84-1.49-1.11-2.37-.27-.88-.4-1.77-.4-2.68s.14-1.72.43-2.58c.29-.85.68-1.61,1.17-2.28.5-.67,1.07-1.21,1.73-1.63.66-.42,1.36-.63,2.11-.63Zm.04.33c-.45,0-.83.12-1.15.35-.32.23-.59.54-.82.92-.22.38-.4.82-.53,1.3-.13.48-.24.98-.31,1.49-.08.51-.13,1.01-.16,1.51-.03.5-.04.94-.04,1.33s.01.86.03,1.35c.02.5.07,1,.14,1.51.07.51.17,1.01.29,1.5s.3.92.51,1.31c.22.38.48.69.81.92.32.23.71.35,1.17.35s.85-.12,1.17-.36c.32-.24.59-.55.8-.93.21-.38.37-.82.48-1.32.11-.5.2-1,.25-1.51.06-.51.09-1.01.1-1.51.01-.5.02-.94.02-1.33,0-.35-.01-.76-.03-1.24-.02-.47-.07-.96-.14-1.47-.07-.5-.16-1.01-.28-1.51-.12-.5-.28-.95-.49-1.34-.21-.39-.46-.71-.75-.95s-.65-.37-1.07-.37Z"/>
      <path class="cls-1" d="m368.47,100.46c0-.13,0-.26-.02-.4-.01-.14-.04-.27-.08-.39-.04-.12-.1-.22-.18-.3s-.18-.13-.3-.13c-.07,0-.16.04-.28.1-.12.07-.26.16-.41.27-.28.22-.64.46-1.08.7-.44.24-.96.37-1.56.37-.82,0-1.57-.19-2.23-.55-.66-.37-1.22-.87-1.69-1.5-.46-.63-.82-1.36-1.07-2.21s-.38-1.74-.38-2.69.12-1.87.37-2.77c.24-.9.6-1.7,1.06-2.39.46-.69,1.03-1.25,1.7-1.66.67-.42,1.44-.63,2.3-.63.38,0,.71.06,1.01.18.29.12.57.25.82.39.25.14.49.27.71.39.22.12.46.18.71.18.17,0,.29-.05.38-.14s.14-.23.17-.43h.38v4.23h-.42c-.03-.5-.14-1.01-.32-1.52-.19-.51-.43-.97-.72-1.38-.29-.41-.64-.75-1.04-1.01-.4-.26-.82-.39-1.27-.39s-.83.12-1.15.36-.59.55-.82.94c-.22.39-.4.83-.53,1.33-.13.5-.24,1-.31,1.51-.08.51-.13,1.01-.15,1.51-.02.5-.03.93-.03,1.31,0,.71.04,1.43.13,2.17.08.73.25,1.4.5,2.01s.61,1.1,1.07,1.49c.46.38,1.07.58,1.82.58.4,0,.77-.15,1.11-.45.34-.3.63-.68.88-1.13.25-.45.46-.94.62-1.47.16-.52.27-1.01.32-1.45h.31v4.98h-.31Z"/>
      <path class="cls-1" d="m371.57,86.49h5.21v.36h-1.51v13.25h1.51v.36h-5.21v-.36h1.32v-13.25h-1.32v-.36Z"/>
      <path class="cls-1" d="m378.31,100.1c.31,0,.56-.02.75-.06.2-.04.36-.12.48-.23.13-.11.23-.28.31-.49.08-.22.18-.49.29-.83.6-2.04,1.21-4.07,1.82-6.1.61-2.03,1.23-4.07,1.84-6.1h.71l4.46,13.82h.92v.36h-5v-.36h1.4l-1.34-4.21h-3.64l-.15.42c-.07.21-.15.47-.25.8s-.19.64-.28.96c-.09.32-.17.61-.24.88-.07.27-.1.45-.1.54,0,.17.07.29.2.38.13.08.29.14.47.18.18.03.37.05.55.05h.49v.36h-3.71v-.36Zm3.12-4.56h3.43l-1.76-5.49-1.68,5.49Z"/>
      <path class="cls-1" d="m391.25,86.49h4.33c.98,0,1.91.11,2.78.34.88.22,1.65.6,2.31,1.14.66.54,1.19,1.26,1.58,2.17.39.91.59,2.04.59,3.39s-.19,2.43-.56,3.32c-.37.89-.87,1.59-1.51,2.13s-1.38.91-2.22,1.14c-.84.23-1.75.35-2.71.35h-4.61v-.36h1.19v-13.23h-1.19v-.38Zm3.66.38v13.23c1.01,0,1.85-.14,2.53-.41.68-.27,1.24-.69,1.65-1.25.42-.56.72-1.26.9-2.1s.27-1.84.27-2.98c0-.93-.1-1.8-.29-2.6-.2-.8-.49-1.48-.89-2.06-.4-.58-.9-1.03-1.51-1.36-.61-.33-1.32-.49-2.15-.49l-.52.02Z"/>
      <path class="cls-1" d="m410.93,86.22c.8,0,1.52.21,2.19.64.66.43,1.24.98,1.72,1.68s.85,1.47,1.12,2.34c.27.87.4,1.75.4,2.63s-.13,1.77-.4,2.63-.64,1.63-1.12,2.3-1.05,1.22-1.72,1.64c-.66.42-1.39.63-2.19.63s-1.55-.21-2.22-.64c-.67-.43-1.24-.99-1.72-1.69-.47-.7-.84-1.49-1.11-2.37-.27-.88-.4-1.77-.4-2.68s.14-1.72.43-2.58.68-1.61,1.17-2.28,1.07-1.21,1.73-1.63,1.36-.63,2.12-.63Zm.04.33c-.45,0-.83.12-1.15.35-.32.23-.59.54-.82.92s-.4.82-.53,1.3c-.13.48-.24.98-.31,1.49-.08.51-.13,1.01-.16,1.51-.03.5-.04.94-.04,1.33s.01.86.03,1.35.07,1,.14,1.51c.07.51.17,1.01.29,1.5.13.49.3.92.51,1.31.22.38.48.69.81.92s.71.35,1.17.35.85-.12,1.17-.36c.32-.24.59-.55.8-.93.21-.38.37-.82.48-1.32.11-.5.2-1,.25-1.51s.09-1.01.1-1.51c.01-.5.02-.94.02-1.33,0-.35-.01-.76-.03-1.24s-.07-.96-.14-1.47c-.07-.5-.16-1.01-.28-1.51-.12-.5-.28-.95-.49-1.34-.21-.39-.46-.71-.75-.95s-.65-.37-1.07-.37Z"/>
      <path class="cls-1" d="m419.2,95.47h.31c.06.71.17,1.36.33,1.94s.41,1.08.72,1.5.71.74,1.18.97,1.04.35,1.7.35c.41,0,.77-.06,1.1-.19.33-.13.6-.3.82-.53.22-.23.36-.51.44-.83.08-.32.07-.67-.03-1.05-.11-.4-.38-.73-.81-.98-.43-.25-.92-.51-1.5-.77-.49-.22-.99-.47-1.5-.73-.51-.27-.98-.6-1.41-.99-.43-.4-.79-.88-1.06-1.43s-.41-1.24-.41-2.05c0-.13,0-.27.01-.42s.02-.31.05-.46c.15-1.13.54-1.97,1.15-2.52.61-.55,1.44-.85,2.49-.91.59-.01,1.07.08,1.47.27.39.2.71.38.96.57.24.2.43.29.59.29.2,0,.31-.09.36-.28.04-.19.06-.37.06-.53h.34v4.21h-.36c-.1-.61-.23-1.18-.4-1.69-.17-.51-.39-.94-.66-1.3-.27-.36-.6-.63-.99-.83-.39-.2-.86-.29-1.4-.29-.36,0-.71.05-1.05.15s-.62.25-.87.45c-.24.2-.43.46-.57.79s-.19.7-.16,1.15c.03.38.13.7.29.97.17.27.38.51.65.71.26.2.57.38.9.53.33.15.68.3,1.05.44.46.18.92.39,1.39.62.47.23.9.52,1.3.86.4.34.73.76,1,1.25.27.49.44,1.08.51,1.78.03.64-.05,1.22-.24,1.75s-.45.97-.8,1.35-.75.67-1.24.87c-.48.2-1,.3-1.56.3s-1.03-.08-1.44-.24c-.42-.16-.78-.32-1.09-.47-.17-.1-.33-.18-.47-.24-.15-.06-.29-.09-.43-.09-.15,0-.26.11-.32.33-.06.22-.1.42-.12.59h-.31v-5.13Z"/>
    </g>
  </g>
</svg>