<?xml version="1.0" encoding="UTF-8"?>
<svg id="Camada_2" data-name="Camada 2" xmlns="http://www.w3.org/2000/svg" viewBox="0 0 236.59 199.45">
  <defs>
    <style>
      .cls-1 {
        fill: #fff;
      }
    </style>
  </defs>
  <g id="Layer_1" data-name="Layer 1">
    <g>
      <g>
        <path class="cls-1" d="m116.01,80.58v16.52h-36.86v-1.27h4.71v-47.32h-4.71v-1.27h18.39v1.27h-5.23v47.32h8.75c2.29,0,4.3-.11,6.02-.34,1.72-.22,3.15-.83,4.3-1.83,1.15-1,2.01-2.52,2.58-4.56.57-2.04.86-4.88.86-8.52h1.2Z"/>
        <path class="cls-1" d="m157.88,60.44h-1.35c-.1-2.95-.5-5.24-1.2-6.86-.7-1.62-1.66-2.81-2.88-3.56-1.22-.75-2.67-1.19-4.34-1.31-1.67-.12-3.5-.19-5.49-.19h-7.03v22.27h2.47c1.69,0,3.19-.04,4.49-.11,1.3-.07,2.38-.4,3.25-.97.87-.57,1.52-1.47,1.94-2.69.42-1.22.64-3,.64-5.35h1.2v19.51h-1.2c-.05-1.94-.27-3.5-.67-4.67-.4-1.17-.95-2.07-1.64-2.69-.7-.62-1.52-1.03-2.47-1.23-.95-.2-2.02-.3-3.21-.3h-2.09c-.4,0-.85.01-1.35.04-.5.03-.95.04-1.35.04v23.47h4.41v1.27h-16.75v-1.27h3.66v-47.32h-3.66v-1.27h34.54l.07,13.2Z"/>
      </g>
      <path class="cls-1" d="m118.52,144.34c-39.79,0-72.17-32.37-72.17-72.17S78.73,0,118.52,0s72.17,32.37,72.17,72.17-32.37,72.17-72.17,72.17Zm0-134.21c-34.21,0-62.04,27.83-62.04,62.04s27.83,62.04,62.04,62.04,62.04-27.83,62.04-62.04-27.83-62.04-62.04-62.04Z"/>
    </g>
    <g>
      <path class="cls-1" d="m11.62,174.33v5.21H0v-.4h1.48v-14.92H0v-.4h5.8v.4h-1.65v14.92h2.76c.72,0,1.35-.04,1.9-.11.54-.07.99-.26,1.36-.58.36-.31.63-.79.81-1.44.18-.64.27-1.54.27-2.69h.38Z"/>
      <path class="cls-1" d="m17.94,179.07h2.29c.72,0,1.39-.02,2.02-.06.62-.04,1.16-.19,1.61-.45.46-.26.82-.67,1.08-1.24.27-.57.4-1.38.4-2.43h.4v4.64h-11.83v-.4h1.18v-14.92h-1.18v-.4h11.81l.02,3.87h-.4c-.13-.86-.35-1.53-.67-1.99-.32-.46-.72-.8-1.18-1.01-.46-.21-.99-.33-1.58-.35-.59-.02-1.22-.04-1.9-.04h-2.07v6.95h.61c.49,0,.92-.02,1.28-.05.37-.03.68-.13.93-.31.25-.17.44-.44.57-.81.13-.37.2-.88.21-1.54h.38v5.94h-.38c-.02-.6-.07-1.07-.18-1.43-.1-.35-.25-.62-.44-.8-.19-.18-.42-.3-.68-.35-.27-.05-.57-.08-.92-.08h-1.39v7.26Z"/>
      <path class="cls-1" d="m34.69,163.52c.9,0,1.72.24,2.46.72.75.48,1.39,1.11,1.93,1.89s.96,1.66,1.26,2.64c.3.98.45,1.97.45,2.96s-.15,1.99-.45,2.96-.72,1.83-1.26,2.59-1.19,1.38-1.93,1.85c-.75.47-1.57.71-2.46.71s-1.74-.24-2.5-.72c-.75-.48-1.4-1.11-1.93-1.9-.53-.79-.95-1.67-1.25-2.66-.3-.99-.45-2-.45-3.02s.16-1.94.48-2.9c.32-.96.76-1.81,1.32-2.57.56-.75,1.21-1.37,1.94-1.84.74-.47,1.53-.71,2.38-.71Zm.05.38c-.5,0-.94.13-1.3.39-.36.26-.67.6-.92,1.04-.25.43-.45.92-.6,1.46-.15.54-.27,1.1-.35,1.67-.09.57-.15,1.14-.18,1.7-.03.56-.05,1.06-.05,1.5s.01.96.04,1.52c.02.56.07,1.12.15,1.7.08.57.19,1.14.33,1.69s.33,1.04.58,1.47c.24.43.55.78.91,1.04.36.26.8.39,1.32.39s.96-.13,1.32-.4c.36-.27.66-.62.9-1.05.24-.43.42-.93.54-1.48.13-.56.22-1.12.28-1.7.06-.57.1-1.14.12-1.7.02-.56.02-1.06.02-1.5,0-.39-.01-.86-.04-1.39-.02-.53-.07-1.08-.15-1.65-.08-.57-.19-1.13-.32-1.7-.13-.57-.32-1.07-.55-1.51-.24-.44-.52-.8-.85-1.07s-.73-.41-1.2-.41Z"/>
      <path class="cls-1" d="m43.3,179.14c.47,0,.84-.01,1.11-.04s.46-.1.58-.24c.12-.13.19-.34.21-.61.02-.27.04-.67.04-1.19v-12.54l-.31-.31h-1.63v-.4h4.74l6.84,11.22v-8.86c0-.5-.01-.89-.04-1.16-.02-.27-.08-.46-.18-.58-.09-.12-.23-.18-.41-.2-.18-.02-.43-.02-.74-.02h-.52v-.4h4.27v.4h-.54c-.31,0-.57,0-.75.02-.19.02-.33.08-.42.2-.09.12-.15.31-.18.58-.02.27-.04.65-.04,1.16v13.48h-1.18l-8.46-14v11.01c0,.63,0,1.11.02,1.45s.08.58.2.73c.12.15.31.24.58.26s.65.04,1.15.04v.4h-4.34v-.4Z"/>
      <path class="cls-1" d="m58.62,179.14c.35,0,.63-.02.85-.07.22-.05.4-.13.54-.26.14-.13.26-.31.35-.55.09-.24.2-.55.33-.93.68-2.29,1.36-4.58,2.05-6.87.69-2.29,1.38-4.58,2.07-6.87h.8l5.02,15.56h1.04v.4h-5.63v-.4h1.58l-1.51-4.74h-4.1l-.17.47c-.08.24-.17.53-.28.9s-.22.72-.32,1.08c-.1.36-.19.69-.27.99-.08.3-.12.5-.12.61,0,.19.07.33.22.42.15.09.33.16.53.2.2.04.41.06.62.06h.55v.4h-4.17v-.4Zm3.51-5.14h3.87l-1.98-6.18-1.89,6.18Z"/>
      <path class="cls-1" d="m77.07,179.14h1.44v.4h-5.33v-.4h1.3v-14.92h-1.3v-.4h6.81c.52,0,1.03.06,1.53.19s.95.33,1.33.62c.39.29.7.68.94,1.15.24.48.37,1.08.37,1.8,0,.55-.08,1.03-.25,1.44-.17.41-.39.76-.67,1.05-.28.29-.61.53-.99.72-.38.19-.78.33-1.2.42v.26c.66.17,1.17.45,1.54.84.37.39.65.82.84,1.31.19.49.31,1,.35,1.54.05.54.08,1.06.09,1.54.02.35.04.67.06.98.02.31.07.57.13.8.06.23.16.41.28.54.13.13.3.2.52.2.14,0,.27-.02.4-.06.13-.04.25-.08.38-.13.02,0,.03,0,.05-.02l.14.35c-.27.13-.53.21-.79.26-.26.05-.52.07-.79.07-.69,0-1.23-.1-1.63-.31-.39-.2-.7-.49-.91-.85-.21-.36-.35-.79-.42-1.3-.07-.5-.13-1.06-.18-1.67-.02-.19-.03-.39-.05-.59s-.04-.42-.07-.64c-.08-.68-.24-1.2-.48-1.58-.24-.38-.54-.66-.9-.84s-.75-.29-1.19-.33c-.44-.04-.9-.06-1.37-.06v7.59Zm0-14.92v6.95h.75c.44,0,.88-.06,1.31-.19.43-.13.81-.33,1.14-.6s.6-.63.8-1.06c.2-.43.31-.96.31-1.59,0-.71-.09-1.29-.28-1.74-.19-.46-.45-.81-.78-1.07-.33-.26-.71-.44-1.15-.54s-.91-.15-1.41-.15h-.68Z"/>
      <path class="cls-1" d="m88.1,163.82h4.88c1.1,0,2.15.13,3.13.38.99.25,1.86.68,2.6,1.28.75.6,1.34,1.42,1.78,2.44.44,1.02.66,2.29.66,3.82s-.21,2.74-.62,3.74c-.42,1-.98,1.8-1.7,2.39-.72.6-1.55,1.03-2.5,1.28s-1.97.39-3.05.39h-5.19v-.4h1.34v-14.9h-1.34v-.42Zm4.12.42v14.9c1.13,0,2.08-.15,2.85-.46.77-.31,1.39-.77,1.86-1.4.47-.63.81-1.42,1.01-2.37s.31-2.07.31-3.36c0-1.05-.11-2.03-.33-2.92-.22-.9-.55-1.67-1-2.32-.45-.65-1.01-1.16-1.7-1.53-.68-.37-1.49-.55-2.42-.55l-.59.02Z"/>
      <path class="cls-1" d="m110.26,163.52c.9,0,1.72.24,2.46.72.75.48,1.39,1.11,1.93,1.89s.96,1.66,1.26,2.64c.3.98.45,1.97.45,2.96s-.15,1.99-.45,2.96-.72,1.83-1.26,2.59-1.19,1.38-1.93,1.85c-.75.47-1.57.71-2.46.71s-1.74-.24-2.5-.72c-.75-.48-1.4-1.11-1.93-1.9-.53-.79-.95-1.67-1.25-2.66-.3-.99-.45-2-.45-3.02s.16-1.94.48-2.9c.32-.96.76-1.81,1.32-2.57.56-.75,1.21-1.37,1.94-1.84.74-.47,1.53-.71,2.38-.71Zm.05.38c-.5,0-.94.13-1.3.39-.36.26-.67.6-.92,1.04-.25.43-.45.92-.6,1.46-.15.54-.27,1.1-.35,1.67-.09.57-.15,1.14-.18,1.7-.03.56-.05,1.06-.05,1.5s.01.96.04,1.52c.02.56.07,1.12.15,1.7.08.57.19,1.14.33,1.69s.33,1.04.58,1.47c.24.43.55.78.91,1.04.36.26.8.39,1.32.39s.96-.13,1.32-.4c.36-.27.66-.62.9-1.05.24-.43.42-.93.54-1.48.13-.56.22-1.12.28-1.7.06-.57.1-1.14.12-1.7.02-.56.02-1.06.02-1.5,0-.39-.01-.86-.04-1.39-.02-.53-.07-1.08-.15-1.65-.08-.57-.19-1.13-.32-1.7-.13-.57-.32-1.07-.55-1.51-.24-.44-.52-.8-.85-1.07s-.73-.41-1.2-.41Z"/>
      <path class="cls-1" d="m140.17,167.98h-.42c-.03-.93-.16-1.65-.38-2.16s-.52-.89-.91-1.12c-.39-.24-.84-.37-1.37-.41-.53-.04-1.1-.06-1.73-.06h-2.22v7.02h.78c.53,0,1.01-.01,1.41-.04.41-.02.75-.13,1.03-.31s.48-.46.61-.85c.13-.38.2-.95.2-1.69h.38v6.15h-.38c-.02-.61-.09-1.1-.21-1.47-.13-.37-.3-.65-.52-.85-.22-.2-.48-.33-.78-.39-.3-.06-.64-.09-1.01-.09h-.66c-.13,0-.27,0-.42.01-.16,0-.3.01-.42.01v7.4h1.39v.4h-5.28v-.4h1.16v-14.92h-1.16v-.4h10.89l.02,4.16Z"/>
      <path class="cls-1" d="m146.46,179.07h2.29c.72,0,1.39-.02,2.02-.06.62-.04,1.16-.19,1.61-.45.46-.26.82-.67,1.08-1.24.27-.57.4-1.38.4-2.43h.4v4.64h-11.83v-.4h1.18v-14.92h-1.18v-.4h11.81l.02,3.87h-.4c-.13-.86-.35-1.53-.67-1.99-.32-.46-.72-.8-1.18-1.01-.46-.21-.99-.33-1.58-.35-.59-.02-1.22-.04-1.9-.04h-2.07v6.95h.61c.49,0,.92-.02,1.28-.05.37-.03.68-.13.93-.31.25-.17.44-.44.57-.81.13-.37.2-.88.21-1.54h.38v5.94h-.38c-.02-.6-.07-1.07-.18-1.43-.1-.35-.25-.62-.44-.8-.19-.18-.42-.3-.68-.35-.27-.05-.57-.08-.92-.08h-1.39v7.26Z"/>
      <path class="cls-1" d="m160.65,179.14h1.44v.4h-5.33v-.4h1.3v-14.92h-1.3v-.4h6.81c.52,0,1.03.06,1.53.19s.95.33,1.33.62c.39.29.7.68.94,1.15.24.48.37,1.08.37,1.8,0,.55-.08,1.03-.25,1.44-.17.41-.39.76-.67,1.05-.28.29-.61.53-.99.72-.38.19-.78.33-1.2.42v.26c.66.17,1.17.45,1.54.84.37.39.65.82.84,1.31.19.49.31,1,.35,1.54.05.54.08,1.06.09,1.54.02.35.04.67.06.98.02.31.07.57.13.8.06.23.16.41.28.54.13.13.3.2.52.2.14,0,.27-.02.4-.06.13-.04.25-.08.38-.13.02,0,.03,0,.05-.02l.14.35c-.27.13-.53.21-.79.26-.26.05-.52.07-.79.07-.69,0-1.23-.1-1.63-.31-.39-.2-.7-.49-.91-.85-.21-.36-.35-.79-.42-1.3-.07-.5-.13-1.06-.18-1.67-.02-.19-.03-.39-.05-.59s-.04-.42-.07-.64c-.08-.68-.24-1.2-.48-1.58-.24-.38-.54-.66-.9-.84s-.75-.29-1.19-.33c-.44-.04-.9-.06-1.37-.06v7.59Zm0-14.92v6.95h.75c.44,0,.88-.06,1.31-.19.43-.13.81-.33,1.14-.6s.6-.63.8-1.06c.2-.43.31-.96.31-1.59,0-.71-.09-1.29-.28-1.74-.19-.46-.45-.81-.78-1.07-.33-.26-.71-.44-1.15-.54s-.91-.15-1.41-.15h-.68Z"/>
      <path class="cls-1" d="m175.57,179.14h1.44v.4h-5.33v-.4h1.3v-14.92h-1.3v-.4h6.81c.52,0,1.03.06,1.53.19s.95.33,1.33.62c.39.29.7.68.94,1.15.24.48.37,1.08.37,1.8,0,.55-.08,1.03-.25,1.44-.17.41-.39.76-.67,1.05-.28.29-.61.53-.99.72-.38.19-.78.33-1.2.42v.26c.66.17,1.17.45,1.54.84.37.39.65.82.84,1.31.19.49.31,1,.35,1.54.05.54.08,1.06.09,1.54.02.35.04.67.06.98.02.31.07.57.13.8.06.23.16.41.28.54.13.13.3.2.52.2.14,0,.27-.02.4-.06.13-.04.25-.08.38-.13.02,0,.03,0,.05-.02l.14.35c-.27.13-.53.21-.79.26-.26.05-.52.07-.79.07-.69,0-1.23-.1-1.63-.31-.39-.2-.7-.49-.91-.85-.21-.36-.35-.79-.42-1.3-.07-.5-.13-1.06-.18-1.67-.02-.19-.03-.39-.05-.59s-.04-.42-.07-.64c-.08-.68-.24-1.2-.48-1.58-.24-.38-.54-.66-.9-.84s-.75-.29-1.19-.33c-.44-.04-.9-.06-1.37-.06v7.59Zm0-14.92v6.95h.75c.44,0,.88-.06,1.31-.19.43-.13.81-.33,1.14-.6s.6-.63.8-1.06c.2-.43.31-.96.31-1.59,0-.71-.09-1.29-.28-1.74-.19-.46-.45-.81-.78-1.07-.33-.26-.71-.44-1.15-.54s-.91-.15-1.41-.15h-.68Z"/>
      <path class="cls-1" d="m190.63,179.07h2.29c.72,0,1.39-.02,2.02-.06.62-.04,1.16-.19,1.61-.45.46-.26.82-.67,1.08-1.24.27-.57.4-1.38.4-2.43h.4v4.64h-11.83v-.4h1.18v-14.92h-1.18v-.4h11.81l.02,3.87h-.4c-.13-.86-.35-1.53-.67-1.99-.32-.46-.72-.8-1.18-1.01-.46-.21-.99-.33-1.58-.35-.59-.02-1.22-.04-1.9-.04h-2.07v6.95h.61c.49,0,.92-.02,1.28-.05.37-.03.68-.13.93-.31.25-.17.44-.44.57-.81.13-.37.2-.88.21-1.54h.38v5.94h-.38c-.02-.6-.07-1.07-.18-1.43-.1-.35-.25-.62-.44-.8-.19-.18-.42-.3-.68-.35-.27-.05-.57-.08-.92-.08h-1.39v7.26Z"/>
      <path class="cls-1" d="m201.02,163.82h5.87v.4h-1.7v14.92h1.7v.4h-5.87v-.4h1.48v-14.92h-1.48v-.4Z"/>
      <path class="cls-1" d="m213.26,179.14h1.44v.4h-5.33v-.4h1.3v-14.92h-1.3v-.4h6.81c.52,0,1.03.06,1.53.19s.95.33,1.33.62c.38.29.7.68.94,1.15.24.48.37,1.08.37,1.8,0,.55-.08,1.03-.25,1.44-.17.41-.39.76-.67,1.05-.28.29-.61.53-.99.72-.38.19-.78.33-1.2.42v.26c.66.17,1.17.45,1.54.84.37.39.65.82.84,1.31.19.49.31,1,.35,1.54.05.54.08,1.06.09,1.54.02.35.04.67.06.98.02.31.07.57.13.8.06.23.16.41.28.54.12.13.3.2.52.2.14,0,.27-.02.4-.06.12-.04.25-.08.38-.13.02,0,.03,0,.05-.02l.14.35c-.27.13-.53.21-.79.26-.26.05-.52.07-.79.07-.69,0-1.23-.1-1.63-.31-.39-.2-.7-.49-.91-.85-.21-.36-.35-.79-.42-1.3s-.13-1.06-.18-1.67c-.02-.19-.03-.39-.05-.59s-.04-.42-.07-.64c-.08-.68-.24-1.2-.48-1.58-.24-.38-.54-.66-.9-.84s-.75-.29-1.19-.33c-.44-.04-.9-.06-1.37-.06v7.59Zm0-14.92v6.95h.75c.44,0,.88-.06,1.31-.19.43-.13.81-.33,1.14-.6s.6-.63.8-1.06.31-.96.31-1.59c0-.71-.09-1.29-.28-1.74-.19-.46-.45-.81-.78-1.07-.33-.26-.71-.44-1.15-.54s-.91-.15-1.41-.15h-.68Z"/>
      <path class="cls-1" d="m223.53,179.14c.34,0,.63-.02.85-.07.22-.05.4-.13.54-.26.14-.13.26-.31.35-.55.09-.24.2-.55.33-.93.68-2.29,1.36-4.58,2.05-6.87.69-2.29,1.38-4.58,2.07-6.87h.8l5.02,15.56h1.04v.4h-5.63v-.4h1.58l-1.51-4.74h-4.1l-.17.47c-.08.24-.17.53-.28.9-.11.36-.21.72-.32,1.08-.1.36-.19.69-.27.99-.08.3-.12.5-.12.61,0,.19.08.33.22.42.15.09.33.16.53.2s.41.06.62.06h.55v.4h-4.17v-.4Zm3.51-5.14h3.87l-1.98-6.18-1.88,6.18Z"/>
      <path class="cls-1" d="m37.36,198.82c.21,0,.39-.01.52-.04.14-.03.25-.08.33-.16s.16-.19.22-.34c.06-.15.13-.34.2-.57.42-1.41.84-2.82,1.26-4.23.43-1.41.85-2.82,1.28-4.23h.49l3.09,9.58h.64v.25h-3.47v-.25h.97l-.93-2.92h-2.53l-.1.29c-.05.15-.11.33-.17.55s-.13.45-.2.67c-.06.22-.12.43-.17.61-.05.18-.07.31-.07.38,0,.12.05.2.14.26.09.06.2.1.33.12.13.02.25.04.38.04h.34v.25h-2.57v-.25Zm2.16-3.17h2.38l-1.22-3.8-1.16,3.8Z"/>
      <path class="cls-1" d="m46.33,189.38h3.01c.68,0,1.32.08,1.93.23.61.15,1.14.42,1.6.79.46.37.82.87,1.1,1.5.27.63.41,1.41.41,2.35s-.13,1.69-.39,2.3c-.26.61-.61,1.11-1.05,1.47s-.95.63-1.54.79c-.59.16-1.21.24-1.88.24h-3.19v-.25h.83v-9.18h-.83v-.26Zm2.54.26v9.18c.7,0,1.28-.09,1.76-.28.47-.19.86-.48,1.15-.86.29-.39.5-.87.62-1.46s.19-1.28.19-2.07c0-.65-.07-1.25-.2-1.8-.14-.55-.34-1.03-.62-1.43-.28-.4-.62-.72-1.04-.94-.42-.23-.92-.34-1.49-.34h-.36Z"/>
      <path class="cls-1" d="m55.44,189.38h3.57v.25h-.93l2.02,6.68c.31-.92.57-1.7.78-2.35s.39-1.2.54-1.64c.14-.45.26-.8.34-1.07.08-.27.14-.48.18-.63.04-.15.06-.27.07-.34,0-.07.01-.13.01-.18,0-.13-.04-.22-.11-.28-.07-.06-.16-.11-.28-.14-.11-.03-.23-.04-.35-.04h-.36v-.25h2.67v.25h-.12c-.23,0-.41,0-.54.02-.13.01-.23.06-.3.13-.08.07-.15.19-.2.34-.06.15-.13.37-.22.64l-2.85,8.68-3.18-9.81h-.77v-.25Z"/>
      <path class="cls-1" d="m68.3,189.2c.55,0,1.06.15,1.52.44.46.3.86.68,1.19,1.16s.59,1.02.78,1.63c.18.61.28,1.21.28,1.82s-.09,1.23-.28,1.82-.44,1.13-.78,1.6-.73.85-1.19,1.14c-.46.29-.97.44-1.52.44s-1.07-.15-1.54-.44c-.46-.3-.86-.68-1.19-1.17-.33-.48-.59-1.03-.77-1.64-.18-.61-.28-1.23-.28-1.86s.1-1.2.3-1.79.47-1.12.81-1.58.74-.84,1.2-1.13.94-.44,1.47-.44Zm.03.23c-.31,0-.58.08-.8.24-.22.16-.41.37-.57.64s-.28.57-.37.9c-.09.33-.16.68-.22,1.03-.05.35-.09.7-.11,1.05-.02.34-.03.65-.03.92s0,.59.02.94.05.69.09,1.05c.05.35.12.7.2,1.04.09.34.21.64.36.91.15.27.34.48.56.64s.49.24.81.24.59-.08.81-.25c.22-.16.41-.38.55-.65.15-.27.26-.57.33-.91.08-.34.14-.69.17-1.05s.06-.7.07-1.05c0-.34.01-.65.01-.92,0-.24,0-.53-.02-.86s-.05-.67-.09-1.02c-.05-.35-.11-.7-.2-1.05-.08-.35-.2-.66-.34-.93-.15-.27-.32-.49-.52-.66s-.45-.25-.74-.25Z"/>
      <path class="cls-1" d="m80.58,192.49h-.29c-.05-.36-.13-.71-.24-1.05-.11-.34-.25-.64-.43-.9s-.39-.47-.64-.62c-.25-.15-.54-.23-.87-.23-.53,0-.95.16-1.26.47-.31.31-.54.7-.7,1.17-.16.46-.26.96-.31,1.49-.05.53-.08,1-.09,1.43,0,.27,0,.57.01.9s.06.66.12.99c.06.33.14.66.24.98s.23.6.4.85c.16.25.36.45.6.6.23.15.5.22.81.22.44,0,.81-.13,1.12-.39.31-.26.46-.68.46-1.26v-2.41h-.86v-.25h3.4v.25h-.84l-.03,4.27c-.12-.25-.23-.42-.33-.49-.11-.08-.22-.1-.34-.08-.12.02-.25.08-.39.15-.14.08-.3.15-.47.2-.28.12-.57.22-.86.3s-.6.12-.92.12c-.6,0-1.14-.12-1.63-.35-.48-.23-.9-.56-1.25-.99-.35-.43-.62-.93-.81-1.52-.19-.59-.28-1.24-.28-1.95,0-.67.09-1.31.28-1.93.19-.62.46-1.16.81-1.63.35-.47.76-.84,1.24-1.13.48-.28,1.01-.42,1.59-.42.23,0,.45.04.64.12.19.08.38.16.55.25.17.09.34.18.49.25.15.08.31.12.48.12.14,0,.22-.05.26-.14.04-.09.06-.21.07-.34h.28v2.95Z"/>
      <path class="cls-1" d="m82.73,198.82c.21,0,.39-.01.52-.04.14-.03.25-.08.33-.16s.16-.19.22-.34c.06-.15.13-.34.2-.57.42-1.41.84-2.82,1.26-4.23.43-1.41.85-2.82,1.28-4.23h.49l3.09,9.58h.64v.25h-3.47v-.25h.97l-.93-2.92h-2.53l-.1.29c-.05.15-.11.33-.17.55s-.13.45-.2.67c-.06.22-.12.43-.17.61-.05.18-.07.31-.07.38,0,.12.05.2.14.26.09.06.2.1.33.12.13.02.25.04.38.04h.34v.25h-2.57v-.25Zm2.16-3.17h2.38l-1.22-3.8-1.16,3.8Z"/>
      <path class="cls-1" d="m91.71,189.38h3.01c.68,0,1.32.08,1.93.23.61.15,1.14.42,1.6.79.46.37.82.87,1.1,1.5.27.63.41,1.41.41,2.35s-.13,1.69-.39,2.3c-.26.61-.61,1.11-1.05,1.47s-.95.63-1.54.79c-.59.16-1.21.24-1.88.24h-3.19v-.25h.83v-9.18h-.83v-.26Zm2.54.26v9.18c.7,0,1.28-.09,1.76-.28.47-.19.86-.48,1.15-.86.29-.39.5-.87.62-1.46s.19-1.28.19-2.07c0-.65-.07-1.25-.2-1.8-.14-.55-.34-1.03-.62-1.43-.28-.4-.62-.72-1.04-.94-.42-.23-.92-.34-1.49-.34h-.36Z"/>
      <path class="cls-1" d="m105.35,189.2c.55,0,1.06.15,1.52.44.46.3.86.68,1.19,1.16s.59,1.02.78,1.63c.18.61.28,1.21.28,1.82s-.09,1.23-.28,1.82-.44,1.13-.78,1.6-.73.85-1.19,1.14c-.46.29-.97.44-1.52.44s-1.07-.15-1.54-.44c-.46-.3-.86-.68-1.19-1.17-.33-.48-.59-1.03-.77-1.64-.18-.61-.28-1.23-.28-1.86s.1-1.2.3-1.79.47-1.12.81-1.58.74-.84,1.2-1.13.94-.44,1.47-.44Zm.03.23c-.31,0-.58.08-.8.24-.22.16-.41.37-.57.64s-.28.57-.37.9c-.09.33-.16.68-.22,1.03-.05.35-.09.7-.11,1.05-.02.34-.03.65-.03.92s0,.59.02.94.05.69.09,1.05c.05.35.12.7.2,1.04.09.34.21.64.36.91.15.27.34.48.56.64s.49.24.81.24.59-.08.81-.25c.22-.16.41-.38.55-.65.15-.27.26-.57.33-.91.08-.34.14-.69.17-1.05s.06-.7.07-1.05c0-.34.01-.65.01-.92,0-.24,0-.53-.02-.86s-.05-.67-.09-1.02c-.05-.35-.11-.7-.2-1.05-.08-.35-.2-.66-.34-.93-.15-.27-.32-.49-.52-.66s-.45-.25-.74-.25Z"/>
      <path class="cls-1" d="m111.09,195.61h.22c.04.49.12.94.23,1.34s.28.75.5,1.04.49.52.82.68.72.24,1.18.24c.28,0,.53-.04.76-.13.23-.09.42-.21.57-.37.15-.16.25-.35.3-.57.05-.22.05-.46-.02-.73-.08-.28-.26-.51-.56-.68-.3-.17-.64-.35-1.04-.54-.34-.15-.69-.32-1.04-.51-.35-.18-.68-.41-.98-.69-.3-.28-.54-.61-.73-.99s-.28-.86-.28-1.42c0-.09,0-.18,0-.29s.02-.21.04-.32c.11-.78.37-1.37.8-1.75.43-.38,1-.59,1.73-.63.41,0,.75.05,1.02.19.27.14.49.27.67.39.16.14.3.2.41.2.14,0,.22-.07.25-.2.03-.13.04-.25.04-.37h.23v2.92h-.25c-.07-.43-.16-.82-.28-1.17-.12-.35-.27-.65-.46-.9-.19-.25-.42-.44-.69-.57-.27-.14-.6-.2-.97-.2-.25,0-.49.03-.73.1s-.43.17-.6.31c-.17.14-.3.32-.39.54s-.13.49-.11.8c.02.26.09.49.2.67.12.19.27.35.45.49.18.14.39.26.62.37.23.11.47.21.73.3.32.13.64.27.97.43.32.16.62.36.9.6.28.24.51.53.7.86.19.34.31.75.36,1.23.02.45-.04.85-.17,1.21s-.31.67-.55.94-.52.46-.86.6c-.33.14-.69.21-1.08.21s-.71-.06-1-.17c-.29-.11-.54-.22-.75-.33-.12-.07-.23-.12-.33-.17-.1-.04-.2-.07-.3-.07-.11,0-.18.08-.22.23-.04.15-.07.29-.08.41h-.22v-3.56Z"/>
      <path class="cls-1" d="m122.32,198.88c.21,0,.39-.01.52-.04.14-.03.25-.08.33-.16.09-.08.16-.19.22-.34.06-.15.13-.34.2-.57.42-1.41.84-2.82,1.26-4.23.43-1.41.85-2.82,1.28-4.23h.49l3.09,9.58h.64v.25h-3.47v-.25h.97l-.93-2.92h-2.53l-.1.29c-.05.15-.11.33-.17.55s-.13.45-.2.67c-.06.22-.12.43-.17.61-.05.18-.07.31-.07.38,0,.12.05.2.14.26.09.06.2.1.33.12.13.02.25.04.38.04h.34v.25h-2.57v-.25Zm2.16-3.17h2.38l-1.22-3.8-1.16,3.8Z"/>
      <path class="cls-1" d="m131.64,195.67h.22c.04.49.12.94.23,1.34s.28.75.5,1.04c.22.29.49.52.82.68.33.16.72.24,1.18.24.28,0,.53-.04.76-.13.23-.09.42-.21.57-.37.15-.16.25-.35.3-.57.05-.22.05-.46-.02-.73-.08-.28-.26-.51-.56-.68-.3-.17-.64-.35-1.04-.54-.34-.15-.68-.32-1.04-.51-.35-.18-.68-.41-.98-.69-.3-.28-.54-.61-.73-.99-.19-.39-.28-.86-.28-1.42,0-.09,0-.18,0-.29,0-.11.02-.21.04-.32.11-.78.37-1.37.8-1.75.43-.38,1-.59,1.73-.63.41,0,.75.05,1.02.19.27.14.49.27.67.39.16.14.3.2.41.2.14,0,.22-.07.25-.2.03-.13.04-.25.04-.37h.23v2.92h-.25c-.07-.43-.16-.82-.28-1.17-.12-.35-.27-.65-.46-.9-.19-.25-.42-.44-.69-.57s-.6-.2-.97-.2c-.25,0-.49.03-.73.1-.23.07-.43.17-.6.31-.17.14-.3.32-.39.54-.09.22-.13.49-.11.8.02.26.09.49.2.67.12.19.27.35.45.49.18.14.39.26.62.37.23.11.47.21.73.3.32.13.64.27.97.43s.62.36.9.6c.28.24.51.53.7.86.19.34.31.75.36,1.23.02.45-.04.85-.17,1.21-.13.36-.31.67-.55.94-.24.26-.52.46-.86.6-.33.14-.69.21-1.08.21s-.71-.06-1-.17c-.29-.11-.54-.22-.75-.33-.12-.07-.22-.12-.33-.17s-.2-.07-.3-.07c-.11,0-.18.08-.23.23-.04.15-.07.29-.08.41h-.22v-3.56Z"/>
      <path class="cls-1" d="m139.19,195.67h.22c.04.49.12.94.23,1.34s.28.75.5,1.04c.22.29.49.52.82.68.33.16.72.24,1.18.24.28,0,.53-.04.76-.13.23-.09.42-.21.57-.37.15-.16.25-.35.3-.57.05-.22.05-.46-.02-.73-.08-.28-.26-.51-.56-.68-.3-.17-.64-.35-1.04-.54-.34-.15-.68-.32-1.04-.51-.35-.18-.68-.41-.98-.69-.3-.28-.54-.61-.73-.99-.19-.39-.28-.86-.28-1.42,0-.09,0-.18,0-.29,0-.11.02-.21.04-.32.11-.78.37-1.37.8-1.75.43-.38,1-.59,1.73-.63.41,0,.75.05,1.02.19.27.14.49.27.67.39.16.14.3.2.41.2.14,0,.22-.07.25-.2.03-.13.04-.25.04-.37h.23v2.92h-.25c-.07-.43-.16-.82-.28-1.17-.12-.35-.27-.65-.46-.9-.19-.25-.42-.44-.69-.57s-.6-.2-.97-.2c-.25,0-.49.03-.73.1-.23.07-.43.17-.6.31-.17.14-.3.32-.39.54-.09.22-.13.49-.11.8.02.26.09.49.2.67.12.19.27.35.45.49.18.14.39.26.62.37.23.11.47.21.73.3.32.13.64.27.97.43s.62.36.9.6c.28.24.51.53.7.86.19.34.31.75.36,1.23.02.45-.04.85-.17,1.21-.13.36-.31.67-.55.94-.24.26-.52.46-.86.6-.33.14-.69.21-1.08.21s-.71-.06-1-.17c-.29-.11-.54-.22-.75-.33-.12-.07-.22-.12-.33-.17s-.2-.07-.3-.07c-.11,0-.18.08-.23.23-.04.15-.07.29-.08.41h-.22v-3.56Z"/>
      <path class="cls-1" d="m150.37,189.25c.55,0,1.06.15,1.52.44.46.3.86.68,1.19,1.16s.59,1.02.78,1.63c.18.61.28,1.21.28,1.82s-.09,1.23-.28,1.82-.44,1.13-.78,1.6-.73.85-1.19,1.14c-.46.29-.97.44-1.52.44s-1.07-.15-1.54-.44c-.46-.3-.86-.68-1.19-1.17-.33-.48-.59-1.03-.77-1.64-.18-.61-.28-1.23-.28-1.86s.1-1.2.3-1.79c.2-.59.47-1.12.81-1.58.34-.46.74-.84,1.2-1.13.45-.29.94-.44,1.47-.44Zm.03.23c-.31,0-.58.08-.8.24-.22.16-.41.37-.57.64-.16.27-.28.57-.37.9-.09.33-.16.68-.22,1.03-.05.35-.09.7-.11,1.05-.02.34-.03.65-.03.92s0,.59.02.94c.01.34.05.69.09,1.05.05.35.12.7.2,1.04s.21.64.36.91c.15.27.34.48.56.64.22.16.49.24.81.24s.59-.08.81-.25c.22-.16.41-.38.55-.65.14-.27.26-.57.33-.91.08-.34.14-.69.17-1.05.04-.35.06-.7.07-1.05,0-.34.01-.65.01-.92,0-.24,0-.53-.02-.86-.01-.33-.05-.67-.09-1.02-.05-.35-.11-.7-.2-1.05-.08-.35-.2-.66-.34-.93-.15-.27-.32-.49-.52-.66s-.45-.25-.74-.25Z"/>
      <path class="cls-1" d="m162.39,199.12c0-.09,0-.18-.01-.28,0-.1-.03-.19-.06-.27-.03-.08-.07-.15-.12-.21s-.12-.09-.21-.09c-.05,0-.11.02-.2.07-.08.05-.18.11-.28.19-.19.15-.44.32-.75.49-.3.17-.67.25-1.08.25-.57,0-1.09-.13-1.55-.38-.46-.26-.85-.6-1.17-1.04-.32-.44-.57-.95-.74-1.53s-.26-1.21-.26-1.87.08-1.3.25-1.92c.17-.62.41-1.18.73-1.66.32-.48.71-.86,1.18-1.15.46-.29,1-.44,1.6-.44.26,0,.49.04.7.12.2.08.39.17.57.27.17.1.34.19.49.27.15.08.32.12.49.12.12,0,.2-.03.26-.09s.1-.16.12-.3h.26v2.93h-.29c-.02-.35-.09-.7-.23-1.05-.13-.35-.3-.67-.5-.96-.2-.29-.44-.52-.72-.7-.28-.18-.57-.27-.88-.27s-.58.08-.8.25-.41.38-.57.65c-.15.27-.28.58-.37.92-.09.34-.16.69-.22,1.05-.05.35-.09.7-.1,1.05-.01.34-.02.65-.02.91,0,.49.03.99.09,1.5.06.51.17.97.35,1.39s.42.76.74,1.03c.32.27.74.4,1.26.4.28,0,.54-.1.77-.31.23-.21.44-.47.61-.78.17-.31.32-.65.43-1.02.11-.36.19-.7.22-1.01h.22v3.46h-.22Z"/>
      <path class="cls-1" d="m164.54,189.44h3.62v.25h-1.05v9.19h1.05v.25h-3.62v-.25h.91v-9.19h-.91v-.25Z"/>
      <path class="cls-1" d="m169.21,198.88c.21,0,.39-.01.52-.04.14-.03.25-.08.33-.16.09-.08.16-.19.22-.34.06-.15.13-.34.2-.57.42-1.41.84-2.82,1.26-4.23.43-1.41.85-2.82,1.28-4.23h.49l3.09,9.58h.64v.25h-3.47v-.25h.97l-.93-2.92h-2.53l-.1.29c-.05.15-.11.33-.17.55s-.13.45-.2.67c-.06.22-.12.43-.17.61-.05.18-.07.31-.07.38,0,.12.05.2.14.26.09.06.2.1.33.12.13.02.25.04.38.04h.34v.25h-2.57v-.25Zm2.16-3.17h2.38l-1.22-3.8-1.16,3.8Z"/>
      <path class="cls-1" d="m178.19,189.44h3.01c.68,0,1.32.08,1.93.23.61.15,1.14.42,1.6.79.46.37.82.87,1.1,1.5.27.63.41,1.41.41,2.35s-.13,1.69-.39,2.3c-.26.61-.61,1.11-1.05,1.47s-.95.63-1.54.79c-.59.16-1.21.24-1.88.24h-3.19v-.25h.83v-9.18h-.83v-.26Zm2.54.26v9.18c.7,0,1.28-.09,1.76-.28.47-.19.86-.48,1.15-.86.29-.39.5-.87.62-1.46s.19-1.28.19-2.07c0-.65-.07-1.25-.2-1.8-.14-.55-.34-1.03-.62-1.43-.28-.4-.62-.72-1.04-.94-.42-.23-.92-.34-1.49-.34h-.36Z"/>
      <path class="cls-1" d="m191.84,189.25c.55,0,1.06.15,1.52.44.46.3.86.68,1.19,1.16s.59,1.02.78,1.63c.18.61.28,1.21.28,1.82s-.09,1.23-.28,1.82-.44,1.13-.78,1.6-.73.85-1.19,1.14c-.46.29-.97.44-1.52.44s-1.07-.15-1.54-.44c-.46-.3-.86-.68-1.19-1.17-.33-.48-.59-1.03-.77-1.64-.18-.61-.28-1.23-.28-1.86s.1-1.2.3-1.79.47-1.12.81-1.58.74-.84,1.2-1.13.94-.44,1.47-.44Zm.03.23c-.31,0-.58.08-.8.24-.22.16-.41.37-.57.64s-.28.57-.37.9c-.09.33-.16.68-.22,1.03-.05.35-.09.7-.11,1.05-.02.34-.03.65-.03.92s0,.59.02.94.05.69.09,1.05c.05.35.12.7.2,1.04.09.34.21.64.36.91.15.27.34.48.56.64s.49.24.81.24.59-.08.81-.25c.22-.16.41-.38.55-.65.15-.27.26-.57.33-.91.08-.34.14-.69.17-1.05s.06-.7.07-1.05c0-.34.01-.65.01-.92,0-.24,0-.53-.02-.86s-.05-.67-.09-1.02c-.05-.35-.11-.7-.2-1.05-.08-.35-.2-.66-.34-.93-.15-.27-.32-.49-.52-.66s-.45-.25-.74-.25Z"/>
      <path class="cls-1" d="m197.57,195.67h.22c.04.49.12.94.23,1.34s.28.75.5,1.04.49.52.82.68.72.24,1.18.24c.28,0,.53-.04.76-.13.23-.09.42-.21.57-.37.15-.16.25-.35.3-.57.05-.22.05-.46-.02-.73-.08-.28-.26-.51-.56-.68-.3-.17-.64-.35-1.04-.54-.34-.15-.69-.32-1.04-.51-.35-.18-.68-.41-.98-.69-.3-.28-.54-.61-.73-.99s-.28-.86-.28-1.42c0-.09,0-.18,0-.29s.02-.21.04-.32c.11-.78.37-1.37.8-1.75.43-.38,1-.59,1.73-.63.41,0,.75.05,1.02.19.27.14.49.27.67.39.16.14.3.2.41.2.14,0,.22-.07.25-.2.03-.13.04-.25.04-.37h.23v2.92h-.25c-.07-.43-.16-.82-.28-1.17-.12-.35-.27-.65-.46-.9-.19-.25-.42-.44-.69-.57-.27-.14-.6-.2-.97-.2-.25,0-.49.03-.73.1s-.43.17-.6.31c-.17.14-.3.32-.39.54s-.13.49-.11.8c.02.26.09.49.2.67.12.19.27.35.45.49.18.14.39.26.62.37.23.11.47.21.73.3.32.13.64.27.97.43.32.16.62.36.9.6.28.24.51.53.7.86.19.34.31.75.36,1.23.02.45-.04.85-.17,1.21s-.31.67-.55.94-.52.46-.86.6c-.33.14-.69.21-1.08.21s-.71-.06-1-.17c-.29-.11-.54-.22-.75-.33-.12-.07-.23-.12-.33-.17-.1-.04-.2-.07-.3-.07-.11,0-.18.08-.22.23-.04.15-.07.29-.08.41h-.22v-3.56Z"/>
    </g>
  </g>
</svg>